<svg xmlns="http://www.w3.org/2000/svg" width="227" height="184" viewBox="0 0 227 184">
    <g fill="none" fill-rule="evenodd">
        <g>
            <g>
                <path fill="#FFF" d="M26.73 9.502c-.084-.066-.167-.138-.243-.203l-.008-.01c.003-.01.008-.02.012-.029l.104-.331c.07-.217.146-.438.225-.654.307-.865.67-1.712 1.109-2.468.432-.754 1.002-1.41 1.577-1.637l.099-.035c.806-.403 1.593-.802 2.377-1.226.391-.208.787-.415 1.176-.635l.587-.337.29-.17c.083-.046.13-.076.2-.1.259-.104.561-.11.831-.009.13.054.254.125.35.23.108.108.144.186.284.415l.693 1.205c.083.146.166.287.254.432l-1.073 1.078c-.53.54-1.084 1.068-1.643 1.59-.556.524-1.1 1.06-1.668 1.578-.259.234-.525.463-.784.701-.68.016-1.4-.033-1.97-.325-1.106-.565-.44-1.645.179-2.294.678-.714 1.547-1.584 2.332-2.166-1.651 1.223-5.52 2.232-4.626 5.154.15.484.6.828.997 1.093.071.05.491.322.828.512-.117.1-.234.204-.351.303l.047-.078c-.74-.492-1.527-1.04-2.186-1.584" transform="translate(0 47.057) matrix(-1 0 0 1 226.037 0)"/>
                <path fill="#FFF" d="M32.352 49.802c-3.01-.704-5.956-1.673-8.743-2.986l-1.077-.516-1.053-.565c-.707-.366-1.368-.81-2.05-1.222-1.315-.89-2.598-1.836-3.765-2.917-2.332-2.154-4.302-4.71-5.683-7.574-.69-1.43-1.238-2.926-1.646-4.464-.34-1.342-.594-2.74-.656-4.106.798-.253 1.583-.53 2.366-.825 2.918-1.122 5.726-2.505 8.419-4.069 5.392-3.133 10.33-6.963 14.965-11.09.582-.515 1.144-1.052 1.712-1.575.57-.528 1.14-1.056 1.696-1.61l1.676-1.64c.065-.067.14-.138.203-.21l.174-.176c.127-.117.25-.234.384-.346.262-.224.536-.424.818-.599.557-.34 1.156-.565 1.658-.552.25.03.483.066.698.195.11.067.227.109.325.216l.159.137c.029.025.049.038.086.072l.107.107c1.107 1.099 2.229 2.166 3.367 3.218 2.284 2.104 4.643 4.127 7.118 6.03 2.177 1.656 4.393 3.293 7.027 4.449-1.919.557-3.926.814-5.91 1.321-1.042.27-2.083.607-3.058 1.122-.981.51-1.862 1.178-2.661 1.913-1.605 1.484-2.91 3.212-4.131 4.979-1.218 1.78-2.304 3.65-3.231 5.604-.901 1.916-1.898 3.79-2.883 5.681l-2.995 5.65c-1.133 2.118-2.273 4.235-3.416 6.348" transform="translate(0 47.057) matrix(-1 0 0 1 226.037 0)"/>
                <path fill="#8A5D3C" d="M50.487 29.01c3.613 5.052 17.08 20.697 54.605 37.428 0 0 48.263 25.53 52.404 40.394.54 1.931 1.752 3.607 3.409 4.74 3.463 2.363 9.551 5.157 16.997 2.8 0 0 4.373-2.366 1.177-8.353 0 0-19.313-33.731-50.135-43.31-4.75-1.474-9.385-3.547-14.009-5.363-4.627-1.817-9.172-3.842-13.618-6.066-8.892-4.448-17.384-9.694-25.339-15.66-1.214-.912-2.383-1.9-3.59-2.83-4.136-3.196-8.637-6.477-11.944-10.571-.865-1.074-2.291-1.51-3.6-1.08-1.951.638-4.598 1.816-6.222 3.822-.948 1.168-1.01 2.826-.135 4.048" transform="translate(0 47.057) matrix(-1 0 0 1 226.037 0)"/>
                <path fill="#000103" d="M56.498 15.611c-.073-.144-.266-.308-.561-.538-1.261-.977-2.909-1.435-4.215-2.351-1.754-1.231-3.391-2.626-4.924-4.123-.723-.707-1.425-1.44-2.102-2.194-.344-.373-.664-.757-.998-1.14-.335-.408-.766-.799-1.318-.952-.55-.162-1.136-.044-1.618.178-.488.23-.909.55-1.302.89-.784.685-1.42 1.507-2.048 2.299-2.548 3.159-5.576 5.912-8.832 8.342-3.26 2.433-6.752 4.546-10.32 6.501 3.903-1.334 7.641-3.118 11.194-5.312.875-.566 1.745-1.146 2.593-1.765.848-.616 1.7-1.24 2.495-1.934.577-.5 1.146-1.015 1.707-1.539-.677.666-1.37 1.323-2.075 1.97-1.272 1.168-2.576 2.313-3.904 3.43-1.33 1.118-2.673 2.219-4.045 3.288 1.483-.909 2.946-1.854 4.397-2.82 1.45-.965 2.881-1.962 4.295-2.994.903-.656 1.794-1.333 2.674-2.03-.538.52-1.082 1.033-1.637 1.54-2.334 2.143-4.776 4.191-7.286 6.156 1.361-.832 2.7-1.697 4.029-2.583 1.331-.884 2.642-1.798 3.937-2.742.676-.491 1.346-.996 2.007-1.511-.73.865-1.383 1.774-1.989 2.692-1.05 1.589-1.974 3.212-3.017 4.746-1.038 1.529-2.212 2.99-3.767 4.057 1.681-.85 3.095-2.19 4.35-3.599 1.262-1.416 2.403-2.919 3.615-4.31 1.077-1.239 2.215-2.39 3.465-3.33-.57.674-1.084 1.38-1.556 2.095-.814 1.228-1.528 2.484-2.334 3.672-.805 1.18-1.713 2.31-2.915 3.136 1.302-.658 2.394-1.693 3.366-2.784.976-1.095 1.857-2.255 2.794-3.33.935-1.077 1.929-2.071 3.041-2.84.653-.454 1.345-.824 2.064-1.112-.403.275-.793.563-1.164.866-1.1.921-2.049 1.962-2.923 3.042-.869 1.085-1.627 2.238-2.328 3.415-.694 1.18-1.332 2.39-1.87 3.64.704-1.163 1.5-2.264 2.336-3.319.842-1.052 1.732-2.062 2.7-2.975.969-.908 1.988-1.747 3.082-2.43.868-.524 1.774-.95 2.693-1.242-1.082.5-2.06 1.138-2.94 1.857-1.06.886-1.972 1.886-2.811 2.924-.835 1.044-1.565 2.153-2.242 3.286-.667 1.136-1.28 2.3-1.796 3.501.675-1.118 1.44-2.177 2.246-3.193.812-1.01 1.664-1.983 2.596-2.86.932-.874 1.914-1.682 2.966-2.339.353-.21.712-.402 1.075-.579-.062.049-.123.097-.184.148-1.278 1.07-2.395 2.271-3.399 3.537-1.006 1.266-1.898 2.601-2.712 3.973-.807 1.375-1.545 2.785-2.17 4.24.818-1.353 1.737-2.637 2.711-3.866.98-1.226 2.024-2.395 3.144-3.461 1.119-1.067 2.316-2.034 3.588-2.828.639-.388 1.288-.745 1.958-1.03.313-.132.626-.248.943-.354-1.53.714-2.995 1.592-4.324 2.656-.684.547-1.334 1.137-1.935 1.776-.61.651-1.149 1.366-1.625 2.103-.952 1.479-1.652 3.038-2.317 4.55-1.337 3.02-2.646 6.078-4.034 9.068-.692 1.497-1.37 3.005-2.123 4.474-.37.74-.76 1.467-1.159 2.194-.397.729-.743 1.481-1.308 2.096.61-.57 1.028-1.3 1.475-1.994.442-.7.88-1.404 1.295-2.122.842-1.428 1.634-2.886 2.4-4.354 1.529-2.944 2.967-5.926 4.443-8.894.724-1.488 1.44-2.977 2.37-4.318.91-1.351 2.078-2.5 3.37-3.489 1.292-.99 2.714-1.802 4.21-2.45 1.147-.499 2.532-.85 3.66-1.515.722-.426.976-.628.843-.893" transform="translate(0 47.057) matrix(-1 0 0 1 226.037 0)"/>
                <path fill="#9BA9B2" d="M31.812 50.802l-1.841 3.392c-3.505-.484-6.958-1.317-10.23-2.614-1.732-.658-3.376-1.509-4.967-2.448-1.58-.952-3.05-2.075-4.418-3.305-2.732-2.477-4.904-5.54-6.415-8.911-.75-1.689-1.355-3.443-1.765-5.247-.218-.901-.375-1.812-.504-2.726-.092-.715-.16-1.451-.188-2.159.613-.045 1.185-.128 1.776-.227.777-.134 1.546-.304 2.312-.495.465-.12.926-.25 1.388-.391.066 1.394.303 2.739.627 4.079.404 1.59.956 3.141 1.654 4.626 1.399 2.975 3.412 5.645 5.803 7.892 1.193 1.127 2.507 2.12 3.857 3.048.694.433 1.372.897 2.094 1.28l1.08.593 1.1.541c2.764 1.33 5.672 2.329 8.637 3.072" transform="translate(0 47.057) matrix(-1 0 0 1 226.037 0)"/>
                <path fill="#000103" d="M165.452 109.905s-1.101 1.168-.57 2.524c-1.241-.561-2.344-1.21-3.296-1.858-1.427-.973-2.464-2.414-2.927-4.066-4.23-15.188-51.012-40.083-53-41.14l-.075-.031c-9.519-4.244-41.55-19.458-54.112-37.027-.26-.366-.393-.798-.393-1.232 0-.477.16-.96.48-1.353.43-.523.946-.983 1.503-1.388C55.44 27.15 63.25 35.92 75.427 44.942c-.98-.295-1.94-.64-2.907-1.24-3.118-1.945-6.192-3.856-9.172-6.03-.098-.071-.221.098-.125.17 1.63 1.28 3.33 2.485 4.776 3.974 1.173 1.213 2.39 2.282 3.822 3.167 1.395.868 2.8 1.425 4.388 1.792 2.085.482 2.835 2.127 4.35 3.43 1.365 1.17 2.874 1.84 4.394 2.75 1.668.994 3.332 2.008 4.98 3.031 1.655 1.02 3.322 2.024 5.005 3.001 1.51.88 3.734 1.617 4.948 2.897.475.507 1.021-.566.374-.686-1.06-.203-2.295-1.17-3.247-1.713-.894-.512-1.783-1.026-2.668-1.55-1.576-.935-3.143-1.887-4.693-2.86-1.788-1.118-3.646-2.296-5.238-3.683-.743-.647-1.567-1.209-2.343-1.825 5.129 3.359 10.847 6.613 17.102 9.457 0 0-.231-.648.542-1.143 0 0-39.144-22.538-45.113-34.5.322-.166.64-.32.957-.458 2.372 3.753 14.221 19.628 54.543 38.313 0 0 45.909 11.122 55.957 37.58-.064.18-.141.345-.245.502-.034-.195-.104-.403-.22-.624-.546-1.035-1.689-1.554-2.248-2.668-.575-1.135-1.078-1.969-2.113-2.735-1.436-1.064-2.902-1.712-4.011-3.209-.802-1.085-1.427-2.244-2.358-3.234-.968-1.035-2.073-1.683-3.162-2.55-.602-.484-1.55-1.337-2.013-1.997-1.516-2.19.874-.868 1.555-.287.063.054.17 0 .143-.086-.458-1.39-3.121-3.305-3.7-.954-.276 1.12.692 1.938 1.496 2.511 1.493 1.069 3.22 1.608 4.465 3.059 1.167 1.363 1.812 3.16 2.939 4.578.9 1.134 1.977 1.82 3.178 2.576.973.613 1.708 1.18 2.27 2.2.382.693.63 1.457 1.143 2.074.458.55.953.698 1.193 1.417.184.552.059.928-.22 1.22-.486.197-1.007.31-1.488.319-1.084.015-2.113-.27-3.13-.63-2.062-.726-3.883-1.69-5.762-2.8-.1-.059-.183.078-.112.158 2.204 2.485 5.908 4.843 9.315 4.509 1.696-.165 2.976-1.204 3.36-2.593.502 1.434.906 2.913 1.182 4.44 0 0-.584 5.87-2.064 5.893M49.502 29.711c.204.288.428.595.682.924-.902.464-1.687 1.043-2.432 1.64-.987.803-1.898 1.667-2.76 2.567-1.723 1.795-3.295 3.698-4.8 5.643-1.5 1.948-2.931 3.944-4.314 5.973-.178.263-.35.532-.529.794.536-1.06 1.076-2.119 1.613-3.18l2.856-5.728c.939-1.916 1.896-3.83 2.764-5.794.856-1.92 1.87-3.773 3.018-5.543 1.158-1.769 2.4-3.493 3.898-4.943.75-.728 1.571-1.378 2.47-1.876.9-.502 1.896-.851 2.905-1.142 2.028-.577 4.161-.879 6.211-1.573.012-.003.027-.016.042-.024l.032 3.75c-1.2-1.283-3.006-1.762-4.692-1.21-2.092.687-4.973 1.974-6.785 4.21-1.287 1.591-1.362 3.859-.178 5.512m-17.15 20.09c-3.01-.703-5.957-1.672-8.744-2.985l-1.077-.516-1.053-.565c-.707-.366-1.368-.81-2.05-1.222-1.315-.89-2.598-1.836-3.765-2.917-2.332-2.154-4.302-4.71-5.683-7.574-.69-1.43-1.238-2.926-1.646-4.464-.34-1.342-.594-2.74-.656-4.106.798-.253 1.583-.53 2.366-.825 2.918-1.122 5.726-2.505 8.419-4.069 5.392-3.133 10.33-6.963 14.965-11.09.582-.515 1.144-1.052 1.712-1.575.57-.528 1.14-1.056 1.696-1.61l1.676-1.64c.065-.067.14-.138.203-.21l.174-.176c.127-.117.25-.234.384-.346.262-.224.536-.424.818-.599.557-.34 1.156-.565 1.658-.552.25.03.483.066.698.195.11.067.227.109.325.216l.159.137c.029.025.049.038.086.072l.107.107c1.107 1.099 2.229 2.166 3.367 3.218 2.284 2.104 4.643 4.127 7.118 6.03 2.177 1.656 4.393 3.293 7.027 4.449-1.919.557-3.926.814-5.91 1.321-1.042.27-2.083.607-3.058 1.122-.981.51-1.862 1.178-2.661 1.913-1.605 1.484-2.91 3.212-4.131 4.979-1.218 1.78-2.304 3.65-3.231 5.604-.901 1.916-1.898 3.79-2.883 5.681l-2.995 5.65c-1.133 2.118-2.273 4.235-3.416 6.348m-2.38 4.392c-3.505-.481-6.96-1.316-10.23-2.614-1.733-.657-3.376-1.51-4.966-2.449-1.582-.952-3.053-2.075-4.42-3.305-2.731-2.477-4.904-5.54-6.415-8.911-.752-1.689-1.354-3.44-1.766-5.245-.215-.901-.374-1.814-.503-2.727-.091-.716-.162-1.452-.187-2.158.611-.046 1.185-.13 1.775-.229.78-.134 1.546-.303 2.311-.494.466-.12.929-.249 1.388-.391.067 1.393.305 2.739.63 4.078.4 1.592.956 3.141 1.652 4.627 1.396 2.976 3.414 5.644 5.803 7.893 1.193 1.127 2.507 2.119 3.858 3.046.694.433 1.372.898 2.094 1.28l1.076.595 1.103.541c2.763 1.329 5.673 2.328 8.637 3.07-.614 1.13-1.226 2.262-1.84 3.393M26.729 9.502c-.083-.066-.166-.138-.242-.203l-.008-.01c.003-.01.008-.02.012-.029l.104-.331c.07-.217.146-.438.225-.654.307-.865.67-1.712 1.109-2.468.432-.754 1.002-1.41 1.577-1.637l.099-.035c.806-.403 1.593-.802 2.377-1.226.391-.208.787-.415 1.176-.635l.587-.337.29-.17c.083-.046.13-.076.2-.1.259-.104.561-.11.831-.009.13.054.254.125.35.23.108.108.144.186.284.415l.693 1.205c.083.146.166.287.254.432l-1.073 1.078c-.53.54-1.084 1.068-1.643 1.59-.556.524-1.1 1.06-1.668 1.578-.259.234-.525.463-.784.701-.68.016-1.4-.033-1.97-.325-1.106-.565-.44-1.645.179-2.294.678-.714 1.547-1.584 2.332-2.166-1.651 1.223-5.52 2.232-4.626 5.154.15.484.6.828.997 1.093.071.05.491.322.828.512-.117.1-.234.204-.351.303l.047-.078c-.74-.492-1.527-1.04-2.186-1.584m153.4 95.918c-.2-.349-4.994-8.659-13.662-18.273-8.023-8.899-20.979-20.562-37.164-25.591-3.364-1.045-6.738-2.423-10.003-3.754-1.284-.524-2.614-1.067-3.924-1.58-4.567-1.795-9.114-3.82-13.52-6.023-8.824-4.413-17.288-9.648-25.151-15.546-.676-.507-1.353-1.053-2.006-1.575-.523-.42-1.041-.838-1.57-1.247-.42-.324-.844-.648-1.267-.973-2.98-2.285-6.031-4.644-8.61-7.311l-.199-6.841c-.01-.379-.241-.731-.615-.88l-.045-.018c-1.317-.48-2.615-1.235-3.884-2.02-1.253-.823-2.497-1.685-3.698-2.619-2.415-1.85-4.734-3.848-7-5.904-1.136-1.026-2.26-2.067-3.353-3.129l-.101-.095-.133-.117-.279-.238c-.179-.165-.415-.286-.641-.41-.46-.25-.997-.361-1.516-.383-1.053-.004-1.932.4-2.672.857-.375.237-.72.493-1.039.777-.03.024-.056.054-.088.08-.09-.063-.183-.129-.27-.2-.317-.26-.615-.566-.886-.894-.107-.132-.325-.42-.548-.598-.234-.192-.488-.35-.764-.45-.554-.216-1.187-.224-1.747-.012-.136.045-.281.125-.396.182l-.276.158-.57.292c-.388.19-.772.379-1.173.552-.778.341-1.575.669-2.37.961-.628.174-1.138.507-1.566.868-.45.374-.811.797-1.135 1.227-.653.865-1.143 1.782-1.58 2.717-.109.233-.207.471-.306.713l-.143.358c-.044.132-.091.182-.17.51-.117.544-.003 1.131.295 1.593.075.11.158.222.249.32l.1.099.075.074c.104.1.203.19.304.286.403.37.822.683 1.25.982.201.137.396.265.594.396-2.946 2.367-6.021 4.568-9.263 6.504-2.623 1.554-5.343 2.943-8.156 4.082-1.408.557-2.843 1.06-4.302 1.455-.731.196-1.464.37-2.203.507-.727.136-1.502.249-2.182.278H.817c-.328.011-.591.28-.597.608-.005 1.018.072 1.96.188 2.926.124.959.279 1.915.499 2.855.41 1.889 1.028 3.733 1.797 5.507 1.55 3.542 3.81 6.797 6.666 9.432 1.43 1.31 2.968 2.507 4.618 3.516 1.659 1.002 3.375 1.909 5.175 2.61 3.574 1.456 7.346 2.374 11.149 2.89h.004c.332.054.673-.108.836-.42l.004-.012c.68-1.328 1.36-2.657 2.035-3.986 1.09-1.543 2.196-3.069 3.338-4.565 1.476-1.941 3.001-3.844 4.586-5.691 1.583-1.841 3.23-3.631 4.983-5.27.872-.823 1.788-1.6 2.73-2.29.833-.603 1.714-1.147 2.59-1.491 5.856 7.049 20.414 20.74 53.144 35.339.731.386 12.457 6.65 24.52 14.547 16.215 10.62 25.638 19.291 27.25 25.083.611 2.198 1.995 4.117 3.89 5.415 2.869 1.958 6.984 3.916 11.98 3.916 1.904 0 3.932-.283 6.063-.96l.115-.034.097-.053c.056-.03 5.39-3.022 1.652-10.02" transform="translate(0 47.057) matrix(-1 0 0 1 226.037 0)"/>
                <path fill="#000103" d="M61.158 21.199c-1.2-1.283-3.005-1.764-4.694-1.21-2.09.687-4.97 1.974-6.783 4.21-1.288 1.593-1.365 3.858-.179 5.512.203.287.43.595.683.923-.903.465-1.688 1.044-2.433 1.64-.989.803-1.9 1.668-2.76 2.567-1.724 1.796-3.297 3.698-4.8 5.644-1.5 1.95-2.93 3.944-4.314 5.972-.179.262-.35.534-.528.795.536-1.06 1.077-2.12 1.611-3.181l2.857-5.726c.938-1.916 1.895-3.832 2.764-5.796.856-1.919 1.87-3.773 3.018-5.543 1.157-1.766 2.398-3.492 3.898-4.943.75-.727 1.571-1.376 2.47-1.876.902-.502 1.895-.85 2.905-1.142 2.028-.576 4.161-.878 6.211-1.571.01-.002.028-.017.04-.025l.034 3.75z" transform="translate(0 47.057) matrix(-1 0 0 1 226.037 0)"/>
                <path fill="#231F20" d="M170.183 16.312c-.005 0-.008 0-.01-.002l.012.002h-.002" transform="translate(0 47.057) matrix(-1 0 0 1 226.037 0)"/>
            </g>
            <path fill="#FFF" d="M26.73 9.502c-.084-.066-.167-.138-.243-.203l-.008-.01c.003-.01.008-.02.012-.029l.104-.331c.07-.217.146-.438.225-.654.307-.865.67-1.712 1.109-2.468.432-.754 1.002-1.41 1.577-1.637l.099-.035c.806-.403 1.593-.802 2.377-1.226.391-.208.787-.415 1.176-.635l.587-.337.29-.17c.083-.046.13-.076.2-.1.259-.104.561-.11.831-.009.13.054.254.125.35.23.108.108.144.186.284.415l.693 1.205c.083.146.166.287.254.432l-1.073 1.078c-.53.54-1.084 1.068-1.643 1.59-.556.524-1.1 1.06-1.668 1.578-.259.234-.525.463-.784.701-.68.016-1.4-.033-1.97-.325-1.106-.565-.44-1.645.179-2.294.678-.714 1.547-1.584 2.332-2.166-1.651 1.223-5.52 2.232-4.626 5.154.15.484.6.828.997 1.093.071.05.491.322.828.512-.117.1-.234.204-.351.303l.047-.078c-.74-.492-1.527-1.04-2.186-1.584" transform="translate(0 47.057)"/>
            <path fill="#FFF" d="M32.352 49.802c-3.01-.704-5.956-1.673-8.743-2.986l-1.077-.516-1.053-.565c-.707-.366-1.368-.81-2.05-1.222-1.315-.89-2.598-1.836-3.765-2.917-2.332-2.154-4.302-4.71-5.683-7.574-.69-1.43-1.238-2.926-1.646-4.464-.34-1.342-.594-2.74-.656-4.106.798-.253 1.583-.53 2.366-.825 2.918-1.122 5.726-2.505 8.419-4.069 5.392-3.133 10.33-6.963 14.965-11.09.582-.515 1.144-1.052 1.712-1.575.57-.528 1.14-1.056 1.696-1.61l1.676-1.64c.065-.067.14-.138.203-.21l.174-.176c.127-.117.25-.234.384-.346.262-.224.536-.424.818-.599.557-.34 1.156-.565 1.658-.552.25.03.483.066.698.195.11.067.227.109.325.216l.159.137c.029.025.049.038.086.072l.107.107c1.107 1.099 2.229 2.166 3.367 3.218 2.284 2.104 4.643 4.127 7.118 6.03 2.177 1.656 4.393 3.293 7.027 4.449-1.919.557-3.926.814-5.91 1.321-1.042.27-2.083.607-3.058 1.122-.981.51-1.862 1.178-2.661 1.913-1.605 1.484-2.91 3.212-4.131 4.979-1.218 1.78-2.304 3.65-3.231 5.604-.901 1.916-1.898 3.79-2.883 5.681l-2.995 5.65c-1.133 2.118-2.273 4.235-3.416 6.348" transform="translate(0 47.057)"/>
            <path fill="#8A5D3C" d="M50.487 29.01c3.613 5.052 17.08 20.697 54.605 37.428 0 0 48.263 25.53 52.404 40.394.54 1.931 1.752 3.607 3.409 4.74 3.463 2.363 9.551 5.157 16.997 2.8 0 0 4.373-2.366 1.177-8.353 0 0-19.313-33.731-50.135-43.31-4.75-1.474-9.385-3.547-14.009-5.363-4.627-1.817-9.172-3.842-13.618-6.066-8.892-4.448-17.384-9.694-25.339-15.66-1.214-.912-2.383-1.9-3.59-2.83-4.136-3.196-8.637-6.477-11.944-10.571-.865-1.074-2.291-1.51-3.6-1.08-1.951.638-4.598 1.816-6.222 3.822-.948 1.168-1.01 2.826-.135 4.048" transform="translate(0 47.057)"/>
            <path fill="#000103" d="M56.498 15.611c-.073-.144-.266-.308-.561-.538-1.261-.977-2.909-1.435-4.215-2.351-1.754-1.231-3.391-2.626-4.924-4.123-.723-.707-1.425-1.44-2.102-2.194-.344-.373-.664-.757-.998-1.14-.335-.408-.766-.799-1.318-.952-.55-.162-1.136-.044-1.618.178-.488.23-.909.55-1.302.89-.784.685-1.42 1.507-2.048 2.299-2.548 3.159-5.576 5.912-8.832 8.342-3.26 2.433-6.752 4.546-10.32 6.501 3.903-1.334 7.641-3.118 11.194-5.312.875-.566 1.745-1.146 2.593-1.765.848-.616 1.7-1.24 2.495-1.934.577-.5 1.146-1.015 1.707-1.539-.677.666-1.37 1.323-2.075 1.97-1.272 1.168-2.576 2.313-3.904 3.43-1.33 1.118-2.673 2.219-4.045 3.288 1.483-.909 2.946-1.854 4.397-2.82 1.45-.965 2.881-1.962 4.295-2.994.903-.656 1.794-1.333 2.674-2.03-.538.52-1.082 1.033-1.637 1.54-2.334 2.143-4.776 4.191-7.286 6.156 1.361-.832 2.7-1.697 4.029-2.583 1.331-.884 2.642-1.798 3.937-2.742.676-.491 1.346-.996 2.007-1.511-.73.865-1.383 1.774-1.989 2.692-1.05 1.589-1.974 3.212-3.017 4.746-1.038 1.529-2.212 2.99-3.767 4.057 1.681-.85 3.095-2.19 4.35-3.599 1.262-1.416 2.403-2.919 3.615-4.31 1.077-1.239 2.215-2.39 3.465-3.33-.57.674-1.084 1.38-1.556 2.095-.814 1.228-1.528 2.484-2.334 3.672-.805 1.18-1.713 2.31-2.915 3.136 1.302-.658 2.394-1.693 3.366-2.784.976-1.095 1.857-2.255 2.794-3.33.935-1.077 1.929-2.071 3.041-2.84.653-.454 1.345-.824 2.064-1.112-.403.275-.793.563-1.164.866-1.1.921-2.049 1.962-2.923 3.042-.869 1.085-1.627 2.238-2.328 3.415-.694 1.18-1.332 2.39-1.87 3.64.704-1.163 1.5-2.264 2.336-3.319.842-1.052 1.732-2.062 2.7-2.975.969-.908 1.988-1.747 3.082-2.43.868-.524 1.774-.95 2.693-1.242-1.082.5-2.06 1.138-2.94 1.857-1.06.886-1.972 1.886-2.811 2.924-.835 1.044-1.565 2.153-2.242 3.286-.667 1.136-1.28 2.3-1.796 3.501.675-1.118 1.44-2.177 2.246-3.193.812-1.01 1.664-1.983 2.596-2.86.932-.874 1.914-1.682 2.966-2.339.353-.21.712-.402 1.075-.579-.062.049-.123.097-.184.148-1.278 1.07-2.395 2.271-3.399 3.537-1.006 1.266-1.898 2.601-2.712 3.973-.807 1.375-1.545 2.785-2.17 4.24.818-1.353 1.737-2.637 2.711-3.866.98-1.226 2.024-2.395 3.144-3.461 1.119-1.067 2.316-2.034 3.588-2.828.639-.388 1.288-.745 1.958-1.03.313-.132.626-.248.943-.354-1.53.714-2.995 1.592-4.324 2.656-.684.547-1.334 1.137-1.935 1.776-.61.651-1.149 1.366-1.625 2.103-.952 1.479-1.652 3.038-2.317 4.55-1.337 3.02-2.646 6.078-4.034 9.068-.692 1.497-1.37 3.005-2.123 4.474-.37.74-.76 1.467-1.159 2.194-.397.729-.743 1.481-1.308 2.096.61-.57 1.028-1.3 1.475-1.994.442-.7.88-1.404 1.295-2.122.842-1.428 1.634-2.886 2.4-4.354 1.529-2.944 2.967-5.926 4.443-8.894.724-1.488 1.44-2.977 2.37-4.318.91-1.351 2.078-2.5 3.37-3.489 1.292-.99 2.714-1.802 4.21-2.45 1.147-.499 2.532-.85 3.66-1.515.722-.426.976-.628.843-.893" transform="translate(0 47.057)"/>
            <path fill="#9BA9B2" d="M31.812 50.802l-1.841 3.392c-3.505-.484-6.958-1.317-10.23-2.614-1.732-.658-3.376-1.509-4.967-2.448-1.58-.952-3.05-2.075-4.418-3.305-2.732-2.477-4.904-5.54-6.415-8.911-.75-1.689-1.355-3.443-1.765-5.247-.218-.901-.375-1.812-.504-2.726-.092-.715-.16-1.451-.188-2.159.613-.045 1.185-.128 1.776-.227.777-.134 1.546-.304 2.312-.495.465-.12.926-.25 1.388-.391.066 1.394.303 2.739.627 4.079.404 1.59.956 3.141 1.654 4.626 1.399 2.975 3.412 5.645 5.803 7.892 1.193 1.127 2.507 2.12 3.857 3.048.694.433 1.372.897 2.094 1.28l1.08.593 1.1.541c2.764 1.33 5.672 2.329 8.637 3.072" transform="translate(0 47.057)"/>
            <path fill="#000103" d="M165.452 109.905s-1.101 1.168-.57 2.524c-1.241-.561-2.344-1.21-3.296-1.858-1.427-.973-2.464-2.414-2.927-4.066-4.23-15.188-51.012-40.083-53-41.14l-.075-.031c-9.519-4.244-41.55-19.458-54.112-37.027-.26-.366-.393-.798-.393-1.232 0-.477.16-.96.48-1.353.43-.523.946-.983 1.503-1.388C55.44 27.15 63.25 35.92 75.427 44.942c-.98-.295-1.94-.64-2.907-1.24-3.118-1.945-6.192-3.856-9.172-6.03-.098-.071-.221.098-.125.17 1.63 1.28 3.33 2.485 4.776 3.974 1.173 1.213 2.39 2.282 3.822 3.167 1.395.868 2.8 1.425 4.388 1.792 2.085.482 2.835 2.127 4.35 3.43 1.365 1.17 2.874 1.84 4.394 2.75 1.668.994 3.332 2.008 4.98 3.031 1.655 1.02 3.322 2.024 5.005 3.001 1.51.88 3.734 1.617 4.948 2.897.475.507 1.021-.566.374-.686-1.06-.203-2.295-1.17-3.247-1.713-.894-.512-1.783-1.026-2.668-1.55-1.576-.935-3.143-1.887-4.693-2.86-1.788-1.118-3.646-2.296-5.238-3.683-.743-.647-1.567-1.209-2.343-1.825 5.129 3.359 10.847 6.613 17.102 9.457 0 0-.231-.648.542-1.143 0 0-39.144-22.538-45.113-34.5.322-.166.64-.32.957-.458 2.372 3.753 14.221 19.628 54.543 38.313 0 0 45.909 11.122 55.957 37.58-.064.18-.141.345-.245.502-.034-.195-.104-.403-.22-.624-.546-1.035-1.689-1.554-2.248-2.668-.575-1.135-1.078-1.969-2.113-2.735-1.436-1.064-2.902-1.712-4.011-3.209-.802-1.085-1.427-2.244-2.358-3.234-.968-1.035-2.073-1.683-3.162-2.55-.602-.484-1.55-1.337-2.013-1.997-1.516-2.19.874-.868 1.555-.287.063.054.17 0 .143-.086-.458-1.39-3.121-3.305-3.7-.954-.276 1.12.692 1.938 1.496 2.511 1.493 1.069 3.22 1.608 4.465 3.059 1.167 1.363 1.812 3.16 2.939 4.578.9 1.134 1.977 1.82 3.178 2.576.973.613 1.708 1.18 2.27 2.2.382.693.63 1.457 1.143 2.074.458.55.953.698 1.193 1.417.184.552.059.928-.22 1.22-.486.197-1.007.31-1.488.319-1.084.015-2.113-.27-3.13-.63-2.062-.726-3.883-1.69-5.762-2.8-.1-.059-.183.078-.112.158 2.204 2.485 5.908 4.843 9.315 4.509 1.696-.165 2.976-1.204 3.36-2.593.502 1.434.906 2.913 1.182 4.44 0 0-.584 5.87-2.064 5.893M49.502 29.711c.204.288.428.595.682.924-.902.464-1.687 1.043-2.432 1.64-.987.803-1.898 1.667-2.76 2.567-1.723 1.795-3.295 3.698-4.8 5.643-1.5 1.948-2.931 3.944-4.314 5.973-.178.263-.35.532-.529.794.536-1.06 1.076-2.119 1.613-3.18l2.856-5.728c.939-1.916 1.896-3.83 2.764-5.794.856-1.92 1.87-3.773 3.018-5.543 1.158-1.769 2.4-3.493 3.898-4.943.75-.728 1.571-1.378 2.47-1.876.9-.502 1.896-.851 2.905-1.142 2.028-.577 4.161-.879 6.211-1.573.012-.003.027-.016.042-.024l.032 3.75c-1.2-1.283-3.006-1.762-4.692-1.21-2.092.687-4.973 1.974-6.785 4.21-1.287 1.591-1.362 3.859-.178 5.512m-17.15 20.09c-3.01-.703-5.957-1.672-8.744-2.985l-1.077-.516-1.053-.565c-.707-.366-1.368-.81-2.05-1.222-1.315-.89-2.598-1.836-3.765-2.917-2.332-2.154-4.302-4.71-5.683-7.574-.69-1.43-1.238-2.926-1.646-4.464-.34-1.342-.594-2.74-.656-4.106.798-.253 1.583-.53 2.366-.825 2.918-1.122 5.726-2.505 8.419-4.069 5.392-3.133 10.33-6.963 14.965-11.09.582-.515 1.144-1.052 1.712-1.575.57-.528 1.14-1.056 1.696-1.61l1.676-1.64c.065-.067.14-.138.203-.21l.174-.176c.127-.117.25-.234.384-.346.262-.224.536-.424.818-.599.557-.34 1.156-.565 1.658-.552.25.03.483.066.698.195.11.067.227.109.325.216l.159.137c.029.025.049.038.086.072l.107.107c1.107 1.099 2.229 2.166 3.367 3.218 2.284 2.104 4.643 4.127 7.118 6.03 2.177 1.656 4.393 3.293 7.027 4.449-1.919.557-3.926.814-5.91 1.321-1.042.27-2.083.607-3.058 1.122-.981.51-1.862 1.178-2.661 1.913-1.605 1.484-2.91 3.212-4.131 4.979-1.218 1.78-2.304 3.65-3.231 5.604-.901 1.916-1.898 3.79-2.883 5.681l-2.995 5.65c-1.133 2.118-2.273 4.235-3.416 6.348m-2.38 4.392c-3.505-.481-6.96-1.316-10.23-2.614-1.733-.657-3.376-1.51-4.966-2.449-1.582-.952-3.053-2.075-4.42-3.305-2.731-2.477-4.904-5.54-6.415-8.911-.752-1.689-1.354-3.44-1.766-5.245-.215-.901-.374-1.814-.503-2.727-.091-.716-.162-1.452-.187-2.158.611-.046 1.185-.13 1.775-.229.78-.134 1.546-.303 2.311-.494.466-.12.929-.249 1.388-.391.067 1.393.305 2.739.63 4.078.4 1.592.956 3.141 1.652 4.627 1.396 2.976 3.414 5.644 5.803 7.893 1.193 1.127 2.507 2.119 3.858 3.046.694.433 1.372.898 2.094 1.28l1.076.595 1.103.541c2.763 1.329 5.673 2.328 8.637 3.07-.614 1.13-1.226 2.262-1.84 3.393M26.729 9.502c-.083-.066-.166-.138-.242-.203l-.008-.01c.003-.01.008-.02.012-.029l.104-.331c.07-.217.146-.438.225-.654.307-.865.67-1.712 1.109-2.468.432-.754 1.002-1.41 1.577-1.637l.099-.035c.806-.403 1.593-.802 2.377-1.226.391-.208.787-.415 1.176-.635l.587-.337.29-.17c.083-.046.13-.076.2-.1.259-.104.561-.11.831-.009.13.054.254.125.35.23.108.108.144.186.284.415l.693 1.205c.083.146.166.287.254.432l-1.073 1.078c-.53.54-1.084 1.068-1.643 1.59-.556.524-1.1 1.06-1.668 1.578-.259.234-.525.463-.784.701-.68.016-1.4-.033-1.97-.325-1.106-.565-.44-1.645.179-2.294.678-.714 1.547-1.584 2.332-2.166-1.651 1.223-5.52 2.232-4.626 5.154.15.484.6.828.997 1.093.071.05.491.322.828.512-.117.1-.234.204-.351.303l.047-.078c-.74-.492-1.527-1.04-2.186-1.584m153.4 95.918c-.2-.349-4.994-8.659-13.662-18.273-8.023-8.899-20.979-20.562-37.164-25.591-3.364-1.045-6.738-2.423-10.003-3.754-1.284-.524-2.614-1.067-3.924-1.58-4.567-1.795-9.114-3.82-13.52-6.023-8.824-4.413-17.288-9.648-25.151-15.546-.676-.507-1.353-1.053-2.006-1.575-.523-.42-1.041-.838-1.57-1.247-.42-.324-.844-.648-1.267-.973-2.98-2.285-6.031-4.644-8.61-7.311l-.199-6.841c-.01-.379-.241-.731-.615-.88l-.045-.018c-1.317-.48-2.615-1.235-3.884-2.02-1.253-.823-2.497-1.685-3.698-2.619-2.415-1.85-4.734-3.848-7-5.904-1.136-1.026-2.26-2.067-3.353-3.129l-.101-.095-.133-.117-.279-.238c-.179-.165-.415-.286-.641-.41-.46-.25-.997-.361-1.516-.383-1.053-.004-1.932.4-2.672.857-.375.237-.72.493-1.039.777-.03.024-.056.054-.088.08-.09-.063-.183-.129-.27-.2-.317-.26-.615-.566-.886-.894-.107-.132-.325-.42-.548-.598-.234-.192-.488-.35-.764-.45-.554-.216-1.187-.224-1.747-.012-.136.045-.281.125-.396.182l-.276.158-.57.292c-.388.19-.772.379-1.173.552-.778.341-1.575.669-2.37.961-.628.174-1.138.507-1.566.868-.45.374-.811.797-1.135 1.227-.653.865-1.143 1.782-1.58 2.717-.109.233-.207.471-.306.713l-.143.358c-.044.132-.091.182-.17.51-.117.544-.003 1.131.295 1.593.075.11.158.222.249.32l.1.099.075.074c.104.1.203.19.304.286.403.37.822.683 1.25.982.201.137.396.265.594.396-2.946 2.367-6.021 4.568-9.263 6.504-2.623 1.554-5.343 2.943-8.156 4.082-1.408.557-2.843 1.06-4.302 1.455-.731.196-1.464.37-2.203.507-.727.136-1.502.249-2.182.278H.817c-.328.011-.591.28-.597.608-.005 1.018.072 1.96.188 2.926.124.959.279 1.915.499 2.855.41 1.889 1.028 3.733 1.797 5.507 1.55 3.542 3.81 6.797 6.666 9.432 1.43 1.31 2.968 2.507 4.618 3.516 1.659 1.002 3.375 1.909 5.175 2.61 3.574 1.456 7.346 2.374 11.149 2.89h.004c.332.054.673-.108.836-.42l.004-.012c.68-1.328 1.36-2.657 2.035-3.986 1.09-1.543 2.196-3.069 3.338-4.565 1.476-1.941 3.001-3.844 4.586-5.691 1.583-1.841 3.23-3.631 4.983-5.27.872-.823 1.788-1.6 2.73-2.29.833-.603 1.714-1.147 2.59-1.491 5.856 7.049 20.414 20.74 53.144 35.339.731.386 12.457 6.65 24.52 14.547 16.215 10.62 25.638 19.291 27.25 25.083.611 2.198 1.995 4.117 3.89 5.415 2.869 1.958 6.984 3.916 11.98 3.916 1.904 0 3.932-.283 6.063-.96l.115-.034.097-.053c.056-.03 5.39-3.022 1.652-10.02" transform="translate(0 47.057)"/>
            <path fill="#000103" d="M61.158 21.199c-1.2-1.283-3.005-1.764-4.694-1.21-2.09.687-4.97 1.974-6.783 4.21-1.288 1.593-1.365 3.858-.179 5.512.203.287.43.595.683.923-.903.465-1.688 1.044-2.433 1.64-.989.803-1.9 1.668-2.76 2.567-1.724 1.796-3.297 3.698-4.8 5.644-1.5 1.95-2.93 3.944-4.314 5.972-.179.262-.35.534-.528.795.536-1.06 1.077-2.12 1.611-3.181l2.857-5.726c.938-1.916 1.895-3.832 2.764-5.796.856-1.919 1.87-3.773 3.018-5.543 1.157-1.766 2.398-3.492 3.898-4.943.75-.727 1.571-1.376 2.47-1.876.902-.502 1.895-.85 2.905-1.142 2.028-.576 4.161-.878 6.211-1.571.01-.002.028-.017.04-.025l.034 3.75z" transform="translate(0 47.057)"/>
            <path fill="#231F20" d="M170.183 16.312c-.005 0-.008 0-.01-.002l.012.002h-.002" transform="translate(0 47.057)"/>
        </g>
        <g>
            <path fill="#FFF" d="M49.512 181.05s1.614-1.482 2.502-2.134c3.09-1.213 4.723-3.933 6.649-4.82 1.924-.889 5.938 1.307 5.938 1.307l.24-3.13 1.87-3.67c1.056-1.554 1.75-2.331 2.081-2.331 2.632 0 4.54.764 4.54.764s-1.063-2.098 0-3.313c1.064-1.215 2.635-1.916 5.364-3.984.54-.409 1.814-4.256 3.132-5.661 1.487-1.587 3.515-3.567 4.206-5.117-.114-1.484-.778-2.35-.826-3.386 2.9-1.008 4.197-2.609 4.498-3.37-4.613-.263-4.017-3.352-4.017-3.352l1.244-2.295s.76-.702 2.23-2.189c1.469-1.486 2.396-8.048 2.396-8.048s-1.6-6.45-.6-9.162c.998-1.979-.89-18.01-.89-18.01l2.246-4.375.505-5.945 1.528-3.65c1.332-3.093 2.253-6.17 2.762-9.23 1.17-8.1-2.762-10.9-2.762-10.9l-2.995.88-.394-14.126c-.1-1.633-.134-2.796-.102-3.488.1-2.183.33-5.332.69-9.447 0 0-.557-3.563-1.314-7.07-.82-3.801-1.852-7.593-2.046-8.218-.164-.526-1.295-2.084-2.98-4.24-.022-.029-1.269-2.064-1.292-2.094-2.15-2.746-3.689-4.109-3.689-4.109-2.765-1.726-4.926-2.915-6.482-3.566-1.324-.554-3.43-1.262-6.318-2.124L59.41 5.702l-7.396-1.289-4.092-.153-3.678.423-6.588 1.16L29.7 7.89 23.36 9.916l-5.465 3.353-4.354 5.529-2.841 4.186-1.744 5.146-1.642 10.547.74 9.638-.713 4.348-.567 8.393.303 6.434-3.092-2.023-2.77 3.94-.226 4.86 1.166 5.98 2.15 6.017 1.232 3.237.47 4.989 2.046 3.793v7.365l-.712 5.748.224 3.783-1.722 3.055 2.366 1.088s-.625 4.072-1.285 6.667c-.21.829.252 3.005 1.13 5.308.57 1.499 1.375 2.996 2.083 4.403 1.828 1.044 2.541 1.979 2.468 3.442-.24 4.8-4.48 1.471-4.552 3.062-.034.745 4.7 3.164 4.675 3.837-.063 1.715-.584 2.65-.584 2.65s2.424 3.437 4.53 5.527c1.022 1.015 1.548 2.995 2.289 4.152.785 1.226 1.777 1.617 2.596 2.303 1.59 1.332 4.802 3.642 7.319 4.644 2.517 1 2.038 4.093 4.133 5.712.75.581.297 3.144.148 4.374 1.715-.262 4.496-1.307 4.496-1.307l3.992-.25 4.89 3.272 2.974 3.933z" transform="translate(63.977)"/>
            <path fill="#9BA9B2" d="M54.698 107.584c1.234.727 2.47 1.456 3.703 2.185-3.132 1.164-9.81.913-13.921.536-.912 1.077-1.953 2.248-2.86 3.319l-2.512-.202c.998-1.178 1.986-2.37 3.153-3.364-.896-.12-1.377-.225-1.23-.269.372-.37.795-.612 1.228-.83l.653-.32c.325-.163.644-.34.941-.574l.289-.255 10.556-.226zm-7.272-52.162l.683.01c9.888.214 19.109 3.124 29.961 7.727 6.533 2.77 6.52 4.877 11.931 0 0 0 .568-.106.926-1.826.024-.141.05-.29.078-.44l.055-.302c.141-.75.287-1.442.292-1.333.017.348-.21 1.665-.47 3.02l-.098.508c-.297 1.52-.598 2.94-.598 2.94-1.573 1.417-2.756 2.223-3.804 2.584 1.089-.177 3.601-.473 4.05.476 1.501-.672 3.581-1.576 3.978-1.605.634-.045 2.149 2.269 2.445 2.649.297.379.422 2.258.422 2.258-1.48.113-5.74 4.173-5.74 4.173s-.865 3.481-1.665 6.935l-.126.545c-.23.996-.449 1.974-.636 2.85-.867 4.056 1.993 8.845 1.993 8.845s-3.759 1.325-4.03 1.234c-.123-.042-.44-2.403-.75-4.98l-.061-.519-.076-.64-.062-.534c-.288-2.482-.529-4.74-.545-4.888v-.008L88.3 72.094c-.86.772-2.01 1.688-3.514 2.773-1.41 1.017-2.885 1.827-4.392 2.456-.47-.346-1.099-.768-1.746-1.189l-.39-.251-.354-.226c-1.23-.782-2.336-1.447-2.336-1.447-.088 1.599-4.843 4.016-5.107 4.149l-.012.006 2.432.716c-5.634.414-11.01-1.019-14.548-2.944l.124-.204c-.349.553-.633 1.108-.858 1.665 1.925 1.521 4.373 2.938 7.867 4.145-3.094.085-5.937-.48-8.446-2.098-.675 4.021 1.237 8.03 3.167 11.581-.344-.16-.687-.162-1.03-.259l-.258-.094-1.002-.288c-1.391-1.895-2.268-3.893-3.021-5.912-.631-1.78-.78-3.505-.752-5.21.098-1.122.038-2.309.563-3.336.324-.591.522-1.327 1.232-1.615-.207-.178-.399-.357-.572-.536-.323-.332-.547-.561-.7-.716l-.197-.197c-.138-.137-.114-.104-.067-.05l.024.027.045.05.012.014c-4.882-2.883-9.672.183-11.45 1.578l-.173.138c1.514 1.637 1.776 4.783 1.45 6.932-.536 3.53-1.788 5.881-3.788 8.834-2.504.796-3.787 1.526-3.908 4.19-1.171.669-2.043 1.295-2.921 2.064 1.452-.673 5.566-2.47 5.698-1.254.324 3.001-5.228 11.626-6.2 11.626-1.45 0-11.596-.363-12.049-1.277-.377-.757-6.398-7.391-8.431-9.622l-.386 2.109-1.624 6.886-.633 3.244-1.838-.298-.514-6.16.861-3.716-2.24-3.377 2.777-9.146-1.145-5.63s-2.327-3.508-5.026-6.162c-2.638-2.59-1.45-4.119-1.393-4.19l.002-.003.782-3.114 5.35-.358 1.904 10.097 3.124.892.031-.855.876-5.267.795-.127c-.397-.397-.627-.648-.663-.687l-.005-.005 4.381-2.434.038-.02.11-.053c.585-.287 2.819-1.381 5.242-2.532l.562-.266.282-.133.606-.285c2.622-1.228 5.13-2.35 5.714-2.438.4-.06 1.613-.438 3.113-.938l.51-.171c.433-.146.884-.3 1.34-.456l.6-.206.257-.09.514-.178c2.733-.95 5.296-1.875 5.296-1.875 3.498-.226 6.523-.34 9.073-.34-8.413-.726-16.894.56-26.777 4.516-7.493 3.586-11.308 9.388-16.534 2.146 0 0-1.01-5.208-.975-5.914.004-.096.326 1.656.374 1.657l.005-.017.015.198c.131 1.4.76 1.616.814 1.632 5.23 7.243 8.13 1.757 15.624-1.83 7.962-3.187 15.71-4.93 22.828-4.996h.687zM83.58 80.16l.003.006.03.06c.215.467 1.367 3.474-.986 10.269l-1.482 3.364-1.911 3.38c.847-.336 1.759-.696 2.756-1.058-.175 2.41-.352 4.817-.528 7.226-3.162 1.508-6.323 3.018-9.483 4.527-3.977-3.19-7.954-6.383-11.93-9.574l1.528-5.55c2.129 1.229 3.728 2.258 5.267 3.546 4.712 3.934 7.46 2.84 12.29.923l-.8-.497.004-.007.027-.055.024-.047.066-.131c.79-1.59 5.203-10.719 5.125-16.382zm-38.3 8.751l-.122 1.197-.477 1.654c.145-.17.328-.31.546-.383-.27 1.18-.245 2.24.097 3.235-.001-.002 2.924 3.518 8.5-.15l.089-.242.083-.736.082-.736.407.877.406.88c.839 1.157 1.76 1.706 1.73 3.124-.727-.003-1.885-.204-2.709-.25l-.291-.01h-.002c-.102.062-1.081.461-2.125.88l-.448.18-1.491.595-.276.109-.294.117-.105.041-.014.006-3.256-2.023-.541.135-2.03.503c-1-.122-2.004-.24-3.006-.36l-.012-.055c-.043-.196-.194-.884-.34-1.6l-.085-.43c-.139-.708-.25-1.352-.22-1.467.029-.118.254-.572.501-1.053l.167-.322c.191-.367.374-.71.468-.885l.049-.091.017-.033c.748-.136 1.496-.274 2.245-.412l-.008.16-.002.095.74-.394.892-.806.835-1.35zM19.507 75.466l-1.192 2.792c-2.638 6.175-.807 10.58 2.389 15.279 3.84 5.648 5.964 6.324 11.769 3.848 1.201-5.58 3.376-6.074 7.772-10.067 2.009-3.339.973-8.56.119-10.63-1.74 1.634-3.573 2.619-5.43 3.114l-.346.086-.036.008c-.432.1-.863.175-1.295.225-1.959.313-5.646.801-8.057.482l3.747-.695c-3.495-.703-6.805-2.559-9.44-4.442zm32.153 12.12c-1.845-.28-3.043.034-4.785.247 1.985-1.83 2.738-2.272 4.785-.248zm20.835-14.634l-.272.002c-.362.004-.689.015-.689.015-.165 3.234-2.658 3.376-5.325 3.644.226.071.33.564.557.635.33.104.793-.09 1.113-.112 2.289.088 4.09-.894 5.954-3.34 0 0-.42-.789-.783-.827-.121-.012-.33-.017-.555-.017zm-45.546.013s-.745.261-1.11.298c-.362.036-1.067.373-1.067.373.992 2.828 5.79 2.678 6.362 3.106.557-.175.704-.115 1.26-.288l-.38-.037-.378-.035-.188-.018-.372-.037c-2.152-.227-3.99-.667-4.127-3.362zm37.824 1.032l-.465.496.116.539s.603.513.743.5c.142-.016.592-.527.592-.527s.112-.447.07-.34c-.042.104-.407-.485-.407-.485l-.65-.183zm-34.857 0l-.464.496.114.539s.605.513.745.5c.14-.016.591-.527.591-.527s.113-.447.07-.34c-.042.104-.408-.485-.408-.485l-.648-.183zm38.067-1.395l-.238.255.058.276s.31.263.382.255c.072-.007.302-.268.302-.268s.06-.23.036-.177c-.023.055-.208-.246-.208-.246l-.332-.095zm-34.856 0l-.238.255.056.276s.31.263.383.255c.073-.007.301-.268.301-.268s.06-.23.036-.177c-.021.055-.208-.246-.208-.246l-.33-.095zm31.468-11.905c2.507 1.105 5.466 2.591 8.877 4.458l.512.28 7.166 1.789-.835-.419c-.827-.412-1.768-.87-2.874-1.338-4.513-1.915-8.749-3.527-12.846-4.77zm23.873-2.326c.848.993 1.113 3.566-.562 5.415-1.674 1.85-4.158 2.336-7.135-.23 2.081 0 3.7.23 4.646.23-.63-.844-2.756-2.746-2.527-3.539 0 0 3.172 1.854 3.6 2.226-.088-.236-.186-.545-.28-.869l-.094-.326c-.169-.6-.316-1.187-.371-1.411l-.021-.084-.003-.011c.544.52 1.353 1.183 1.895 1.705.715-.734.52-2.25.852-3.106zm-78.666.531c.147.927.194 1.783.762 2.778.542-.522 1.447-1.272 1.99-1.793 0 0-.705 2.205-.83 2.698.22-.133.671-.384 1.151-.647l.322-.176c.696-.378 1.354-.73 1.354-.73-.516.948-1.218 1.91-1.849 2.754.894.391 2.58-.175 4.59-.218-2.418 2.505-5.683 1.865-6.9.483-1.328-1.51-1.638-4.197-.59-5.149zm51.1-7.259c-.928.034-1.795.148-3.217.148 2.368.41 3.982.874 4.843 1.391-1.72.036-2.075.22-3.795.253 2.908.922 4.109 1.58 6.687 2.904-2.565-.522-4.707-.99-7.276-1.58-5.505-.765-9.214-1.087-14.77-1.013-3.23.043-4.592.33-5.748.63l-.274.072-.272.072-.273.07c-.554.14-1.152.27-1.978.364 1.976-.823 2.678-1.091 4.124-1.577l.623-.208.732-.241c-2.31.224-2.55.224-4.618.254 2.205-.835 3.355-1.219 5.596-1.773-1.024-.07-1.635-.109-2.643-.264 3.625-.899 6.99-1.316 10.389-1.376 3.838-.068 10.366.882 11.87 1.874zM15.571 15.53l-.55 3.867s-.925 4.398-1.017 8.457l-.025 1.156-.013.586-.006.294-.011.586c-.06 3.12-.103 6.055-.107 6.369v.027l.254 14.901-2.398.821-2.993 1.833-.326-2.654-1.065-11.257.473-6.65 2.46-9.742 5.324-8.594zm67.38 0l5.323 8.594 2.461 9.743.3 5.622-.326 12.68-.892 2.258-2.993-1.833-2.398-.82.688-15.1.001-.015s-.367-7.648-.597-8.805c-.099-.499-.312-2.136-.523-3.834l-.067-.538c-.253-2.057-.483-4.04-.483-4.04l-.494-3.912zM43.818 43.555c-4.312 1.1-10.395 2.198-15.188 3.499-5.167 1.402-9.488 3.211-13.756 4.455 3.815-2.781 8.33-4.515 13.024-5.795 5.181-1.412 12.114-2.362 15.92-2.159zm4.956 2.375l.728.01c1.644.053 3.326.119 4.98.32.878.108 2.977.23 3.083.48-.357.082-1.065.126-2.123.13 1.556.165 2.277.148 3.423.53-1.093.248-1.8.116-2.906.13 1.76.397 4.008.665 5.485 1.3-1.667-.14-4.538-.53-6.186-.753-2.137-.176-4.078-.2-6.106-.26-1.323-.039-2.697-.01-4.104 0-1.56.16-3.821.43-5.46.35l-.395-.028 3.515-.762c-1.482.084-2.45.183-2.901.046.685-.439 2.043-.478 3.48-.721-.657-.029-1.043-.138-1.357-.211 1.357-.299 2.634-.403 3.903-.458.736-.033 1.475-.073 2.21-.092l.731-.011zm28.063-31.678c5.947 10.316 5.496 19.54 4.75 31.278l-.04.61-12.009-3.59 9.47.667c1.064-10.578.386-18.63-2.171-28.965zM42.247 7.89c-9.745 1.682-14.341 4.211-18.62 6.758l-.534.318-.799.478-.534.317-.539.316c-.631.368-1.275.733-1.947 1.093 1.497-3.915 10.25-8.298 22.974-9.28zM48.996.905l2.405.316 1.975 1.14 1.604 1.997-4.19-.42h-4.103l-3.551.586 1.705-2.077 1.696-1.048 2.459-.494z" transform="translate(63.977)"/>
            <path fill="#C54B25" d="M86.094 88.099s.803 2.085 1.642 4.337l.202.543c.739 1.993 1.458 3.997 1.635 4.701.36 1.439.778 5.747.845 6.455l.01.099.419 7.444.153 5.445-.573 2.714.85 8.774s-1.704 5.757-2.098 6.492c-.393.734-2.385 2.188-2.385 2.188s-1.086.96-1.086 2.188c0 1.228.804 2.146 1.833 2.256.281.03.623.061.973.09l.35.03c.811.065 1.563.115 1.563.115l-2.452 2.31s-2.623.805-2.43 1.979c.192 1.174.317 2.964.317 2.964l-4.489 5.26-.022.092-.038.152c-.163.644-.63 2.397-1.08 3.218-.559 1.016-3.38 3.896-3.38 3.896l-4.298 1.746.278 1.86.69 1.658-4.743-.982-2 2.907s-1.952 2.478-1.995 3.026c-.042.548-.232 2.87-.232 2.87l-5.26-1.102-9.804 7.726-3.584-4.989-5.756-3.014-3.131.782s-2.776 1.053-3.182 1.053c-.372 0-.403-2.623-.406-3.06v-.062l-1.809-3.816-2.123-2.38c-.28-.283-.911-.123-1.548.094l-.346.122c-.627.225-1.197.439-1.366.256-.37-.4.585-2.306.585-2.306l-3.927-2.764-3.611-2.912-2.198-4.985-3.107-1.934-1.782-2.674.53-3.386-4.32-2.802 2.66-.803 1.72-1.791-.06-2.188-3.295-3.313-2.508-6.402.886-10.042-.722-3.835.44-4.662s.393-2.744.841-5.512l.1-.615c.404-2.45.831-4.76 1.045-5.017.472-.564 4.843-6.277 4.843-6.277l4.433 9.3s1.016-3.637 2.223-3.376c1.208.263.322 3.186 2.806 4.563 2.485 1.377 3.699 1.43 3.699 1.43l4.102-.94 5.103-5.182s3.87-.205 4.652.436c.695.572 6.998 1.59 8.39 1.808l.171.027.1.016 2.974-1.3s7.345-1.272 7.859-1.129c.512.142 3.187 1.532 3.187 1.532l3.755 4.406s5.706.372 6.4 0 3.148-3.728 3.148-3.728l.975-.91 2.695-2.676 5.064-8.494zm-41.088 19.337c-.332.096-1.647 1.578-1.647 1.578s-2.262.85-2.333 1.11l.005.032c.145.21-3.041 4.212-3.041 4.212s.806.227 1.648.458l.388.106c.706.193 1.352.364 1.472.38.284.04 5.944-.639 6.311-.73.37-.092 4.57-.222 5.951.319 1.38.541 4.15.82 4.428.64.276-.182 1.819-.705 2.222-1.173.401-.469-1.736-2.288-1.736-2.288l-3.515-4.008-4.116.317s-5.705-1.05-6.037-.953z" transform="translate(63.977)"/>
            <path fill="#000103" d="M55.663 4.373c5 .936 9.3 1.846 13.68 3.108 6.652 1.916 13.03 4.479 15.913 10.946 3.991 3.442 4.893 9.8 6.282 16.485.7 3.369.606 6.63.378 9.52-.118 1.507-.297 2.746-.487 4.09.295 2.798 1.323 13.116.717 15.893l-.042.172.056-.058c2.254-2.256 5.304 2.658 5.66 5.248.475 3.443-.16 5.737-.557 8.377-.197 1.29-.207 2.67-.56 3.782-.993 3.14-3.28 5.511-3.49 7.974-.14 1.635.24 3.186.138 4.323-.573 1.292-1.28 3.7-2.284 4.574.34 1.56.65.929.752 2.86.102 1.999-.722 4.108-.42 6.08.223 1.462 1.018 2.747.976 4.188-.01.347-.08.691-.163 1.036.075.321.1.96.103 1.593v.403l-.01.606-.348-.394c.818.92 1.616 1.858 2.513 2.702-.635 1.145-1.953 1.366-3.223 1.892.022 1.003.188 2.013.372 3.02l.139.756c.346 1.887.644 3.758.06 5.547-.84 2.567-1.628 5.089-2.459 7.427-1.53.19-2.908 1.052-3.077 2.236-.484 3.415 3.337 1.698 5.537 2.77-1.555 2.01-3.958 3.197-6.004 4.73.366.816.646 1.714.978 2.567-1.446 2.204-2.704 4.59-4.886 6.08-.821 4.206-2.993 7.244-7.126 8.243-.452 1.147-1.441.972-1.258 2.117.175 1.084 1.33.877 1.404 2.342-1.249.358-1.997.003-3.07-.27-.352-.09-2.285-.65-2.51-.584-.356.1-1.835 1.794-2.376 2.612-.661.993-1.528 2.242-1.677 3.107-.324 1.913 1.4 2.207.978 3.649-1.425.358-2.482-.11-3.53-.619l-.45-.218c-.754-.36-1.529-.684-2.457-.684-.685 1.982-3.123 1.817-4.79 3.527l-1.035.764s-3.758 1.231-4.493 4.745c-1.296-6.074-7.533-9.02-9.755-9.22-2.411.004-4.99 2.37-7.634 1.705-.42-1.442.991-1.646.664-3.559-.147-.865-1.016-2.115-1.673-3.107-.181-.273-.385-.678-.589-1.1l-.174-.365c-.347-.725-.677-1.405-.88-1.463-.223-.064-2.58.72-2.932.81-1.072.273-1.822.628-3.07.27.074-1.465 1.92-1.077 2.092-2.162.185-1.144-1.36-1.42-1.813-2.567-4.133-.999-6.439-3.767-7.26-7.973-2.182-1.49-3.663-3.842-5.108-6.045.332-.853.333-1.954.698-2.772-2.046-1.531-3.947-2.55-5.501-4.56 2.12-1.114 5.667.657 5.67-2.512-.169-1.184-.927-2.297-2.46-2.489-.827-2.338-2.37-4.865-3.21-7.432-.585-1.79-.311-3.707.016-5.63l.133-.77c.174-1.027.334-2.05.356-3.052-1.273-.526-2.524-.618-3.156-1.763.836-.787 1.587-1.654 2.346-2.514-.011-.6-.012-1.367.031-1.914-.125-.506-.27-1.01-.285-1.518-.04-1.441.753-2.726.978-4.188.302-1.972-.522-4.081-.42-6.08.103-1.931.488-1.488.828-3.046l-.001-.002-.04.025c-.09.043-.12-.019-.1-.16l.039.037-.083-.08c-.915-.968-1.638-2.997-2.178-4.208-.098-1.137-.053-2.53-.194-4.166-.21-2.462-2.16-4.992-3.156-8.131-.352-1.112-.363-2.492-.558-3.782C.74 75.514.105 73.22.579 69.777c.364-2.635 3.604-7.204 5.869-4.653-.107-.532-.179-1.041-.22-1.532-.41-.904-.278-3.769.019-6.807l.068-.678.06-.555.061-.554.064-.55c.33-2.787.715-5.333.853-6.224-.165-1.4-.303-2.799-.418-4.257-.226-2.892-.773-5.686-.073-9.055 1.39-6.685 2.291-13.043 6.282-16.485 2.884-6.467 9.26-9.03 15.914-10.946 4.378-1.262 8.678-2.172 13.68-3.108 1.096-5.83 11.828-5.83 12.925 0zm-3.735 164.55l-1.465.45c-1.245 3.273-1.606 6.765-1.694 9.067l-.012.367-.007.337c.044.094.085.185.124.272l.11.248.135.323.13.326.083.228 2.325-2.257c.366-1.807.939-5.608.27-9.361zm-2.442.751l-.587.181-2.358 1.895c-.307 1.256-.335 2.383-.286 3.195l.015.21c.66.793 1.213 1.632 1.658 2.406l.018-.265c.2-2.544.889-5.383 1.54-7.622zm4.304-1.707l-.576.41c.542 2.205 1.023 5.057.777 7.64l.138-.134 3.55-2.418c-1.63-.919-3.038-3.534-3.889-5.498zm-17.046-9.258c-.274.546-.646.976-.708 1.602-.216 2.205.327 4.482.699 6.352.253 1.283.945 2.535.837 3.379-.226 1.754-2.08 2.555-2.373 4.054 1.29-.52 2.518-1.101 3.581-1.841.86-1.037 1.716-3.227 1.503-7.858-.32-1.493-.807-2.937-.943-4.362l-.001-.001-2.595-1.325zm24.645-.694c-.272.169-.594.378-.924.597l-.368.246c-.364.245-.72.488-1.006.685-.054 1.58-.615 3.183-.974 4.845l.021.005c-.216 4.687.663 6.875 1.533 7.896 1.05.724 2.26 1.294 3.529 1.807-.293-1.5-2.146-2.3-2.372-4.054-.109-.844.583-2.096.837-3.38.37-1.869.914-4.146.7-6.351-.066-.651-.466-1.09-.742-1.668l-.096-.223-.106-.295-.032-.11zm-14.224 6.412l-2.49 4.702-1.708 3.332c.577.277 1.114.625 1.61 1.02.36-2.33 1.943-4.983 2.972-6.51l.192-.28-.576-2.264zm-13.73-6.507c-.308.612-.56 1.262-.61 2.121-.07 1.244.26 2.49.644 3.74l.27.864c.658 2.113 1.24 4.23.064 6.34.375.63.418 1.58.976 2.03.512-1.217 1.39-2.081 1.815-3.38-.632-3.049-2.102-6.591-1.536-9.864.068-.389.234-.854.447-1.357l-2.07-.494zm29.107-.289c.373.797.697 1.555.798 2.14.568 3.273-.902 6.815-1.534 9.864.426 1.299 1.303 2.163 1.813 3.38.56-.45.603-1.4.978-2.03-1.123-2.014-.643-4.034-.024-6.052l.269-.865c.42-1.344.807-2.688.731-4.027-.034-.606-.17-1.107-.354-1.565-.897-.79-2.053-.851-2.677-.845zm5.209-.359l-.083.01c-.579.102-1.098.64-1.448 1.106.163.406.295.852.331 1.383.24 3.536-2.27 6.247-1.396 9.864 2.47-2.479 5.983-8.867 2.596-12.363zm-35.473.875l-1.415.282-1.185.3c-1.543 3.597 1.409 8.742 3.567 10.906.874-3.617-1.637-6.328-1.396-9.864.044-.636.224-1.15.429-1.624zm22.624 2.534l-.029.023c-.285.664-.42 1.42-.326 2.31.177 1.68 1.48 4 2.234 5.78-.02-.777.005-1.566.045-2.27-.03-.208-.05-.423-.052-.648l.006-.295.02-.272c.192-1.939 1.268-3.706 1.43-5.476-1.003-.657-2.393.131-3.328.848zm-14.466.488c.274.962.683 1.935.944 2.948h.001c.101.397.179.791.219 1.192l.02.272c.016.291.001.565-.03.829.042.716.07 1.53.052 2.333.46-1.082 1.118-2.359 1.6-3.568l-.603-1.726-2.203-2.28zm11.458-18.828c-.815.299-2.095 5.057-2.588 7.008l-.204.824-2.922-5.6c-.116 1.163-.135 2.317.045 3.172.242 1.136 1.107 2.081 1.398 3.378.314 1.41.266 3.142.558 4.73.188 1.02.7 2.05.699 2.973-.004 1.665-1.153 3.272-.559 5 .263-.321.189 2.678.474 2.38v-.094l.047.046.046-.046v.094c.287.298.927-2.701 1.19-2.38.594-1.728-.554-3.335-.557-5-.002-.922.51-1.952.698-2.973.293-1.588.243-3.32.558-4.73.291-1.297 1.157-2.242 1.396-3.378.3-1.421.051-3.666-.279-5.404zm17.302 8.003l.073.152c1.171 2.45 1.946 5.283.493 8.059 1.828 2.119-.11 5.243-.28 7.297.084.055.202.076.328.089l.256.022c.168.018.32.05.393.16-.201-1.584.108-2.903.595-4.12l-.048-.194.167-.096c.179-.418.375-.825.576-1.228l.292-.583c.584-1.163 1.148-2.322 1.35-3.644.183-1.19.266-3.426-.36-4.87-1.06-.404-2.352-.72-3.075-.223l-.14-.168c-.13-.152-.345-.392-.62-.653zm-16.094-7.882l.02.054c.526 1.456 1.018 2.942 1.005 4.417-.028 3.426-2.084 6.835-2.93 10.135-.462 1.803.492 3.48.558 5.54 1.153-1.045 1.447-2.923 2.651-3.917-.614-3.978 1.079-6.293 1.815-10.271.304-1.635.819-3.36.857-4.597l-.753-.289-.49-.184c-.374-.138-.75-.273-1.112-.397l-.43-.143c-.431-.14-.837-.26-1.191-.348zm-8.428-.773c-1.166 2.552-1.753 5.22-1.778 5.336-.351-1.623-.28-3.144-.005-4.483l-1.55.744c-.145 1.24.488 3.246.838 5.134.736 3.978 2.43 6.293 1.815 10.271 1.204.994 1.498 2.872 2.651 3.917.066-2.06 1.02-3.737.558-5.54-.847-3.3-2.902-6.71-2.932-10.135-.011-1.41.438-2.829.937-4.222l-.534-1.022zm-19.265 9.84l-.117.048c-.544 1.444-.458 3.54-.284 4.68.186 1.213.675 2.288 1.205 3.354l.438.874c.133.266.263.534.388.806l.399.227c.14-.546.316-1.049.489-1.48.062-.328.171-.649.34-.954.103-.184.225-.36.371-.53-1.276-2.437-.834-4.919.086-7.147l.102-.242c-.803-.552-2.311-.1-3.417.364zm50.804-.238h-.032c-.536.036-1.112.26-1.457.896l-.206-.114-.23-.119c.34 1.403.247 3.187.08 4.439-.208 1.562-1.03 3.057-1.728 4.489l.3-.17 1.813-1.828.18 1.643c2.091-1.554 2.619-3.914 2.646-5.936-.212-.64-.472-1.258-.74-1.87l-.268-.605c-.121-.275-.242-.549-.358-.825zm-52.389.56c-1.468 2.467-1.332 6.03-1.244 7.162.368.553.84 1.067 1.441 1.514l.182-1.643 1.136 1.146c-.577-1.17-1.14-2.382-1.307-3.637-.158-1.184-.25-2.843.027-4.208l-.001.002c-.07-.128-.148-.239-.234-.335zm-1.567-.557l-.074.008c-.115.273-.234.543-.354.814l-.268.605-.11.253-.023.245c-.107 1.275-.09 2.86.434 4.342l.112.297-.053-.27c-.368-2.124.342-4.689.69-5.763l.178-.513c-.182-.027-.363-.03-.532-.018zm15.392-5.937c-.091 1.09.2 2.363.202 3.469.004 2.052.028 3.48 1.117 5 1.123 1.571 3.075 3.03 4.187 3.918.245-1.69-.275-3.23-.83-4.769l-.236-.66c-.236-.66-.458-1.324-.609-2.003-.328-1.475-.496-3.003-.724-4.557l-.517 2.175-2.59-2.573zm20.259-1.2l-.078.414c-.34 1.962-.499 3.892-.91 5.741-.151.68-.373 1.343-.608 2.003l-.238.66c-.553 1.538-1.074 3.079-.829 4.77 1.112-.888 3.064-2.348 4.187-3.92 1.085-1.519 1.114-2.947 1.117-5 .001-1.126.304-2.425.196-3.529l-1.001-.374-.063-.027c-.204-.088-.888-.38-1.773-.739zM31.875 149l-.14.026c-.284.063-.564.178-.832.324-1.437 2.177-2.746 5.36-1.566 8.258 2.161-2.14 4.047-5.34 2.538-8.608zm34.685-.025h-.023c-1.532 3.277.36 6.488 2.526 8.633 1.224-3.01-.233-6.326-1.73-8.502-.255-.087-.515-.136-.773-.131zm-29.836-4.54l-3.474 2.688c.086.125.179.242.274.35-.486 2.367.912 5.368-.699 7.432.887-.026 1.477-.964 2.095-1.351.639-.4 1.443-.325 1.674-1.082.18-.588-.211-1.384-.279-2.16-.18-2.08.15-4.19.408-5.873l.001-.004zm25.143 1.28c.198 1.416.356 3.015.218 4.596-.068.777-.46 1.573-.28 2.16.23.758 1.036.683 1.674 1.083.618.387 1.21 1.325 2.094 1.351-.977-1.253-.846-2.852-.7-4.444l.05-.561c.056-.663.092-1.317.028-1.937l-.048-.17c-.06-.22-.174-.614-.33-1.062l-2.706-1.015zm17.048-3.193l-.745.432-.474.517-.062.066c.368 1.794.748 3.576 1.48 5.018-.08.72.324 1.184 0 1.756.723 1.012 1.668 1.808 2.373 2.838.99-4.488-1.347-7.062-2.572-10.627zm-59.517.245c-1.244 3.44-3.452 5.998-2.485 10.382.705-1.03 1.648-1.826 2.373-2.838-.325-.572.078-1.035 0-1.756.671-1.324 1.047-2.935 1.389-4.58-.406-.416-.794-.842-.915-.977l-.04-.044-.322-.187zm-1.965 2.381l-.099.092c-.778.697-1.64 1.188-2.404 1.53-.037.19-.077.38-.118.57l-.084.38-.08.363c-.367 1.691-.594 3.241 1.008 3.85-.374-3.197.79-4.906 1.777-6.785zm62.518-2.539c.252 1.054.688 1.929 1.146 2.783l.25.465c.878 1.626 1.723 3.283 1.396 6.075 2.51-.952.536-4.214.553-6.714l.005-.177-.29-.098c-1.3-.506-1.956-1.636-3.06-2.334zm-66.06 4.56l-.077.027c-.2.065-.38.116-.533.156-.078.559-.033 1.22.204 1.525l.078.083c.064-.22.11-.455.15-.698l.112-.734c.02-.121.041-.241.065-.359zm70.635-1.074l-.006.008c-.06.202.14.641-.1.694.155.534.204 1.172.317 1.746l.1.417.11-.1c.942-.964-.235-2.658-.407-2.76l-.014-.005zm-63.091-1.392l-.036.142c-.239 1.047-.458 2.068-.623 3.002l-.096.572c.509-.772 1.159-1.705 1.709-2.685-.232-.397-.459-.732-.6-.805l-.032-.013c-.067-.015-.181-.095-.322-.213zm55.443-.389l-.03.03c-.286.275-.543.5-.679.56l-.037.012c-.085.02-.213.167-.357.379.557 1.076 1.276 2.117 1.846 2.976l.097.148-.095-.572c-.192-1.092-.459-2.302-.745-3.533zM28.471 129.78l-.168.007c-.276.467-.542.944-.803 1.425l-.537.994c-.365 1.591-.043 3.177.327 4.73l.172.714c.227.95.436 1.884.478 2.798.128 2.772-1.378 4.663-1.816 6.89 1.452-1.18 5.03-2.54 5.167-4.728.043-.729-.854-2.069-1.118-3.513-.377-2.066-.261-3.264.14-5.135-.5.283-2.586.657-2.653-.272.802-.617 2.364-1.186 2.792-2.432.142-.413.23-.87.257-1.333-.68-.158-1.543-.17-2.238-.145zm40.034-2.305l-.046.031c-.108.07-.207.112-.233-.03-.646 1.036-.692 2.587-.28 3.782.429 1.246 1.993 1.815 2.792 2.432-.064.93-2.15.555-2.652.272.403 1.87.517 3.069.14 5.135-.264 1.444-1.163 2.784-1.117 3.513.136 2.188 3.715 3.547 5.167 4.728-.438-2.227-1.944-4.118-1.817-6.89.042-.914.25-1.849.479-2.798l.172-.714c.343-1.442.645-2.912.395-4.39l-.068-.34-.536-.994c-.72-1.322-1.468-2.616-2.396-3.737zm-25.947 12.316l-1.987.85c-.451.195-.86.373-1.152.503l-.29.131-.239.118-.282.15c-.236.13-.46.263-.758.453l-.371.24-.755.503.055.056c.294.298.576.55.867.778l.176.134c.255.189.52.364.85.565l.079.047.58.343-.001-.034c-.04-1.292 1.372-3.271 3.137-4.76l.091-.077zm5.21-3.87c-.571 1.131-1.655 2.243-3.046 2.954l.118-.063.052.14c.757 1.996 1.7 3.563 3.28 5.57l.087.111.065-.09c1.29-1.812 2.042-3.145 2.645-4.79l.047-.133-.11-.1c-.848-.787-1.586-1.696-2.157-2.65-.077.418-.172.873-.276 1.334l-.106.461c-.323 1.381-.685 2.706-.783 3.062l-.01.031.013-.045c.262-1.12.205-4.72.182-5.792zm34.493.253l-1.102.655c-.416 1.224-.69 2.611-.788 4.024.796 1.3 1.985 2.222 3.209 3.107.598.208.788.601 1.536.406 1.58.045 2.68-.377 3.35-1.215-.278-.609-1.237.41-3.908-.27-.81-.7-1.698-1.32-2.398-2.123l-.253-.31-.044-.381c-.151-1.543.056-2.761.398-3.893zm-66.017.367c.277 1.03.428 2.148.293 3.526l-.044.381c-.73.959-1.74 1.646-2.65 2.434-2.673.679-3.633-.34-3.912.27 2.072 2.585 5.746.565 7.522-1.515l.553-1.067-.004-.056c-.103-1.152-.322-2.28-.638-3.308l-1.12-.665zm8.328-4.726l-.033.074c-.076.162-.155.323-.238.483l-.12.22c.036.519.053 1.331.06 2.17l.003.484v1l-.003.455-.011 1.29-.071-.328c-.106-.473-.274-1.156-.443-1.834l-.458-1.796c-.331.492-.591.918-.622 1.28-.134 1.528.644 3.679 1.257 5 .666 1.439 1.663 2.695 2.231 4.053.763-1.62.573-3.496.225-5.41l-.07-.168c-.32-.77-1.6-4.017-1.707-6.973zm44.35-6.637c-.25 1.041.333 1.778.938 2.471l.226.259c.187.214.367.427.513.647.658.989 1.598 2.276 1.956 3.516.474 1.642.153 3.506-.216 5.387l-.158.807c-.42 2.15-.76 4.286.095 6.101.566-1.358 1.566-2.614 2.231-4.053.611-1.321 1.39-3.472 1.257-5-.054-.63-.8-1.453-1.408-2.478l-.128-.223-.128-.24c-1.502-2.883-1.666-6.086-5.177-7.194zM51.24 136.635l.183.424.108.24.096.202c.513 1.037 1.161 1.987 2.033 2.886.384.396.805.774 1.24 1.117 2.018.973 5.457 2.22 7.18 2.522l.088.015-.016-.064c-.142-.502-.484-.861-1.22-1.408l-.345-.251c-.634-.47-.966-.782-1.198-1.2l-.038-.072-.081.018c-1.977.376-6.034-2.135-8.01-4.405l-.02-.024zm12.702-3.246l-.84.974-.116.132-.236.269c-.365.412-.721.805-.915.99.023 2.203.407 4.353 1.226 5.774.584.257 1.088.592 1.573.944l.004.002c.498.364.974.745 1.495 1.082.236-1.97-1.716-4.08-1.536-6.35.768.839 1.135 2.503 1.954 3.512.803-1.785 1.07-3.585.737-5.37l-3.346-1.96zm-27.476.104l-2.405 1.54-3.03.845c-.194 1.61.094 3.231.818 4.84.82-1.009.02-.11 1.341-1.761.18 2.272-1.16 2.628-.923 4.599 1.032-.668 1.886-1.507 3.072-2.028 1.1-1.909 1.414-5.135 1.127-8.035zm46.94 2.212c-.465 1.275-.696 2.724-.523 4.474.188.16.361.334.532.511l.256.266c.599.618 1.238 1.197 2.423 1.248-.867-.917-1.74-1.829-1.396-3.918.695-.78 1.413-1.535 1.914-2.502l-3.205-.079zm-68.58-.008l-1.014.024c.117.69.137 1.274.14 1.522l-.001.128-.08-.28c-.15-.468-.371-.932-.612-1.357l-1.476.038c.5.973 1.223 1.73 1.919 2.514.315 1.915-.393 2.84-1.18 3.688l-.216.23c1.184-.051 1.824-.63 2.422-1.248l.256-.266c.17-.177.344-.351.532-.511.168-1.698-.043-3.112-.482-4.36l-.207-.122zm31.047-11.578c-1.734 7.812-5.068 8.6-7.883 15.788.69-.296 1.394-.629 2.108-.98.776-.383 1.562-.786 2.36-1.182 1.28-.637 3.227-1.764 3.908-2.836.32-.503.724-2.683 1.064-5.43l-1.169-3.96-.388-1.4zm6.732.643l-1.514 2.677-.956.9v.001l-1.358 1.282c-.028 1.29.068 3.35.85 4.61l.156.227.005-.04c.035-.294.271-2.14.78-3.666.381 1.746.875 3.224 1.466 4.156.683 1.072 2.628 2.199 3.908 2.836.725.36.995.519 1.233.651l.157.086c.217.116.48.241 1.088.501-2.73-6.973-4.417-7.211-5.815-14.22zm-31.804-5.56c-1.333 5.57-.916 12.687-.958 18.814.282-.635.602-1.232.932-1.82l.664-1.172c.22-.393.435-.789.639-1.197-1.287-4.21-.816-9.33-.038-13.957l-1.239-.668zm56.15-2.18l-1.033.405c.993 5.196 1.922 11.433.405 16.4.71 1.43 1.575 2.708 2.233 4.19-.046-6.961.497-15.2-1.604-20.995zm-22.378 4.26l-1.008 1.782c1.32 5.597 3.108 10.744 6.377 14.456l.328.362-.069-.323c-.917-4.374-1.537-10.12-3.712-14.01l.01.457.007.522.005.52.002.496v.726c-.007 1.815-.05 3.297-.057 3.523v.03c-.309-2.009-1.186-5.95-1.883-8.541zm-9.651-.59l-.091.333c-.848 3.009-2.507 6.408-2.835 7.066l-.043.086-.01.021c.412-.979.437-3.264.358-5.298-2.495 3.877-3.132 10.035-4.102 14.659l-.068.323c3.773-4.05 5.643-9.942 7.04-16.291l-.25-.9zm-26.18-2.602c-.512.79-1.195 1.375-1.27 2.223-.37.153.562.161.278.675-.42 1.146-1.268 2.684-1.397 4.19-.173 2.062-.302 5.664 0 7.162.388 1.91 1.883 3.268 2.514 4.458.16-5.848-.242-12.682 1.02-18.091l-1.145-.617zm60.381-2.638l-1.231 1.11c1.39 3.92 1.553 8.933 1.584 13.855l.005 1.004c.006 1.837.005 3.65.052 5.377.631-1.19 2.124-2.548 2.514-4.458.303-1.498.174-5.1 0-7.162-.13-1.506-.974-3.044-1.397-4.19-.229-.414.33-.5.365-.598l-.02-.042c-.015-.011-.036-.023-.066-.035l-.02-.131-.18-.357-.349-.753c-.486-.67-1.135-1.334-1.266-2.406-.034-.282.01-.575.075-.873l-.066-.34zm-71.217 9.525c-.31 3.2.095 6.464 1.886 8.444-.065-2.201-.737-4.94-.969-7.608l-.917-.836zm82.085-3.042l-.105.08-.223.168-.141.106c.557 3.598-.82 7.934-.916 11.132 2.373-2.621 2.316-7.492 1.385-11.486zm-31.257 3.243c-.129 2.014 1.145 4.743 1.607 7.166l.07.4.05-.193c.547-2.187.3-6.294-1.727-7.373zm-19.07 0c-2.025 1.08-2.273 5.186-1.726 7.373l.052.194c.385-2.519 1.81-5.441 1.675-7.567zm48.71-1.963l-.064.063-.215.22-.452.463-.412.422c.174.71.432 1.397.676 2.012-.284.4-.716.657-1.255.81-.216 1.816.126 3.819.699 5.27 1.031-2.685 1.347-6.017 1.023-9.26zm-25.826-4.453c-.128.784-.326 1.58-.324 2.361 0 .404.045.843.121 1.304l-1.29-2.76-.93 2.69-.01-.01c-.16-.164-2-2.036-2.024-1.93-.025.103 1.509 3.474 1.72 3.938l.024.053 1.812 2.956 1.444 3.905 1.219-1.903c.495 1.643.982 2.582 2.8 3.11.203-.06-.014-.12 0-.27-.958-2.498-2.484-4.95-2.762-8.319l-.03-.465-.008-.214c-.042-1.272.065-2.674-.04-3.893-.565-.135-1.219-.363-1.722-.553zm-52.607 8.202l.014.224c.125 1.887.485 3.7 1.094 5.287.32-.81.57-1.794.688-2.82-.115-.28-.44-.787-.802-1.311l-.23-.33c-.28-.395-.559-.775-.764-1.05zm25.954-7.945l-.04.016c-.486.193-1.124.4-1.635.401l-.098-.002c-.09 1.191.009 2.544-.031 3.774l-.009.214c-.17 3.61-1.79 6.172-2.791 8.784.013.15-.203.21 0 .27 2.139-.622 2.436-1.815 3.069-4.056.591-2.077 1.812-5.17 1.817-7.297.001-.697-.156-1.406-.282-2.104zm-13.13 1.244c-.181.746-.322 1.538-.384 2.349l-.024.404c-.132 3.124-.235 6.676.699 9.19 2.111-2.599 1.749-6.337 1.187-10.096l-1.477-1.847zm52.106-2.43l-.112.045-.007.063c-.539 4.97-2.31 10.694.593 14.265.888-2.394.838-5.73.717-8.741l-.019-.45-.024-.403c-.135-1.778-.651-3.464-1.148-4.779zm-38.556 6.806c-.085.62-.237 1.177-.403 1.721l-.253.812c-.167.543-.32 1.1-.408 1.718l-.052.478c.954-1.012 2.859-3.56 1.116-4.73zm28.97-5.207h-.044c.036.713.052 1.465.074 2.227l.023.764c.081 2.296.274 4.597 1.213 6.132 1.299-2.828.42-6.184-.453-9.038-.304-.05-.586-.082-.812-.085zm-32.13.087l-.102.017c-.264.046-.54.103-.806.162-.855 2.814-1.67 6.088-.398 8.857 1.342-2.197 1.158-5.962 1.305-9.036zm-4.676 3.966c-.984 2.79-1.798 4.747 1.872 5.019-1.011-1.663-1.368-3.133-1.872-5.019zm10.695-.756l-1.602 1.986.24 1.015 1.13-.962.232-2.04zm9.015-7.385c.026 1.072.176 1.673.201 2.747-.221 1.949-.664 2.908-.15 4.772l1.002 2.603c1.51-2.086 1.89-5.12 2.125-8.003l.16-2.054c-.19-.01-.415.013-.663.046l-.31.042c-.19 1.422-.807 3.827-1.122 5.005l-.168.617.015-.066c.194-.878.208-3.134.193-4.633l-.012-.82c-.44.005-.88-.054-1.271-.256zm19.685 4.592l.002.013c.107.644.666 3.896 1.141 4.473l2.192.852-.486-.758-.007-.01c-.15-.205-2.468-3.393-2.816-4.476l-.026-.094zm3.29-.779l-.7.248c.04.88.03 1.811.014 2.467.43.822.87 1.763 1.27 2.796 1.397-.67.395-3.677-.584-5.51zm-43.788-.256c-.12.212-.242.445-.363.692l-.093.287c-.22.727-.727 2.706-.382 4.66l.186-.458c.472-1.141 1.372-3.165 2.356-4.578l-1.704-.603zM14.54 108.15c-.197 1.547-.215 3.248-.202 4.979l.01.946.01.872c.034 3.339-.007 6.624-1.18 8.96l-.174.325c1.5-.98 2.157-2.639 2.513-4.999.655-4.343 1.148-8.657-.977-11.082zm69.403.747l-1.506 2.75c-.266 1.969-.028 4.292.311 6.663l.814 3.602.096.224c.366.81.86 1.461 1.54 1.958l.198.138-.174-.325c-1.114-2.22-1.206-5.3-1.183-8.467l.01-1.003c.023-1.898.052-3.8-.106-5.54zm-52.669 11.037l-.061.017c-.297.078-.488.133-.488.133l-.24-.085c-.281.833-.352 1.87-.311 3.016.548-.797.865-1.964 1.1-3.081zm53.983-19.214c-.194.876-1.271 1.703-1.395 2.837-.139 1.251.814 2.643 1.116 4.19.347 1.771.255 3.763.13 5.778l-.064 1.008c-.167 2.689-.275 5.358.633 7.536 2.02-2.9 1.26-8.137.277-12.297-.097-.411.096-.887 0-1.215-.173-.6-.619-1.018-.788-1.552l-.049-.206-.04-.313c-.032-.337-.031-.662-.008-.978l.191-4.78c0-.003-.002-.005-.003-.008zM14.3 102.766l-1 1.827.046 1.15c.008.242.003.49-.021.744l-.04.313c-.102.638-.64 1.084-.839 1.758-.096.328.1.804 0 1.215-.981 4.16-1.742 9.396.28 12.297.85-2.042.809-4.515.662-7.032l-.062-1.008c-.14-2.185-.278-4.363.098-6.283.3-1.546 1.254-2.938 1.116-4.19-.03-.28-.12-.542-.24-.791zm59.312 15.528l-1.373.483c.316.703.555 1.48.778 2.273l.096.346.072-.27c.207-.813.394-1.858.427-2.832zm-48.828-.309c-.002 1.057.202 2.241.432 3.14l.072.271c.28-1.012.57-2.013.998-2.88l-1.502-.53zm44.816 1.725l-.308.109c.222.348.466.75.721 1.2-.086-.29-.179-.586-.272-.877l-.141-.432zm-19.771-16.13c-.148.643-.108 1.18.072 1.634 4.733.989 7.814 3.833 8.407 4.418l.067.066.011.012.027.027c1.193.883 2.188 1.984 3.253 3.28.822 1 1.342 1.848 2.187 2.351l1.527.467c.269.025.565.032.893.018-.677-.597-1.41-1.306-2.094-2.025-.635-.67-1.675-1.287-1.675-2.162 1.813 1.226 2.486 2.005 3.769 2.972 4.052 3.056 7.773-1.93 9.912-4.324-1.265 1.07-3.195 2.984-6.004 2.973-3.55-.015-4.78-2.013-6.784-3.751l-.196-.167-.364-.292c-3.362-2.588-9.079-4.181-13.008-5.498zm-1.563-.532c-3.924 1.315-9.347 3.398-12.69 6.016l-.376.305c-2.123 1.774-3.317 3.903-6.98 3.918-2.8.011-4.726-1.892-5.992-2.964l1.024 1.15c2.115 2.318 5.05 4.956 8.497 2.355 1.284-.966 1.76-1.495 3.771-2.973 0 .658-.585 1.308-1.146 1.875l-.276.275c-.089.09-.175.177-.254.26-.684.72-1.416 1.18-2.095 1.78 2.691.11 3.22-1.149 4.607-2.838 1.266-1.541 2.649-2.346 4.278-3.072.351-.305.843-.702 1.463-1.132l-.44.12c-1.685.472-3.056.964-3.056.964 3.004-2.789 9.06-3.703 9.317-3.74.403-.617.562-1.366.348-2.299zm5.405 5.83c-3.394.996-7.86.39-9.247.161-.213.087-.44.125-.616.054l-.06-.03-.016.007c-1.75.785-3.386 3.09-4.623 4.352 1.348.016 2.585.276 3.77.27 1.61-.007 2.859-.94 4.466-1.216.614-.105 1.21-.16 1.81-.195v-.005l.046.004.046-.004v.005c.598.035 1.196.09 1.81.195 1.608.276 2.855 1.209 4.468 1.217 1.183.005 2.42-.255 3.768-.271-1.242-1.266-2.887-3.582-4.64-4.36-.26.16-.68.014-.982-.184zm33.255-16.192l-.622 7.405.103 2.032.342 2.136 1.265 3.633 1.828 4.441-.13-3.177-.15-2.387s-.722-1.663-.602-1.864c.054-.091-.197-.96-.491-1.89l-.138-.432c-.324-1.005-.65-1.954-.65-1.954l-.755-7.943zm-45.562 6.922c-1.51.881-3.126 2.318-4.806 3.774l-.57.493c-2.958 2.54-6.096 4.958-9.164 4.413-2.453-2.14-4.747-4.435-6.217-7.527l-.203-.443.079.251c1.202 3.693 4.573 8.693 7.634 9.599l.213.056c-2.51 2.194-6.77-4.426-7.073-5.128l-.008-.021.08.3c.83 2.952 2.347 5.345 4.796 6.425 4.084 1.8 6.936-1.723 9.306-3.921-.26.101-.524.208-.79.316l-.473.197c-1.806.756-3.492 1.55-3.492 1.55 1.925-1.912 7.131-3.94 8.183-4.338l.187-.07c1.14-.517 2.295-.926 3.274-1.3 1.358-.52 3.525-1.801 4.783-2.9-.803-.566-1.75-.972-2.576-1.184-2.912.93-6.007 3.49-7.117 4.616.101-1.405 2.413-3.784 4.721-5.001-.221-.12-.494-.159-.767-.157zm15.68.001l-.066.002c-.445.022-.867.173-1.04.613 2.328.925 5.07 2.22 5.17 3.605-1.729-1.026-5.778-2.937-8.708-3.356-.877.34-1.72.85-2.279 1.526 1.022 1.26 4.477 1.666 5.963 2.235 1.733.665 4.03 1.435 5.81 2.738 1.411.892 3.944 2.39 5.644 2.831l-.118.01-.11.005h-.143c-.513-.01-1.536-.119-2.924-.718 2.117 2.034 4.654 4.19 8.034 2.7 2.54-1.12 4.076-3.652 4.886-6.756-1.114 1.46-3.718 6.008-5.995 4.941l-.148-.077.336-.213c3.108-2.037 5.369-5.463 6.523-9.002l.117-.375-.202.443c-1.469 3.092-3.763 5.387-6.216 7.527-3.068.545-6.206-1.874-9.164-4.413l-.57-.493c-1.68-1.456-3.295-2.891-4.8-3.773zm-45.845-.79l-.117 1.23-.436 1.302-.166.508-.112.348c-.295.929-.558 1.825-.504 1.914l.01.028c.035.194-.247.932-.432 1.385l-.152.363-.142 2.276-.125 3.026 1.742-4.23 1.204-3.46.326-2.036.026-.521-1.122-2.133zm49.712-.098l-.088.007c-.509.04-1.357.152-1.913.468 1.759 1.199 3.989 2.833 5.409 4.633 3.604 4.566 6.92 3.327 8.794 1.215-2.559-.151-5.76-.284-7.539-1.89-.51-.47-1.014-1.029-1.528-1.601l-.31-.344c-.874-.967-1.788-1.923-2.825-2.488zm-23.68-.015c-2.477.917-3.532 3.29-4.405 4.447-1.777 1.607-4.978 1.74-7.538 1.891 1.663 1.362 4.732 3.932 8.795-1.215 1.43-1.813 3.681-3.456 5.446-4.658-.63-.336-1.594-.429-2.047-.455l-.25-.01zm-22.338-4.244c-.17-.504-.272-.752-.228-.48.352 2.192.896 6.205 1.027 7.174l.018.136.011.079.53-.311c.031.115.31 1.153.637 2.27l.14.473c.378 1.263.78 2.474.911 2.413.273-.125.375-1.66.684-1.571.274.078.78 1.301.895 1.588l.023.06-.175-4.341-1.501 1.681-1.194-5.75-.375 1.093-.003-.01c-.054-.18-.846-2.826-1.309-4.232zm59.57-24.141c1.585 1.305 2.296 2.454 2.968 3.595l.252.428.128.214-2.833-1.85-.324-.213 1.185 1.215-1.376-.848-.71.004c.3.145.598.289.895.428l.162.074.117.191c.195.336.366.69.506 1.068l1.707.694h-2.804c-.017.053-.038.1-.05.124-.2.428-3.555 1.498-7.252 1.519.298.075.638.137.986.199l.46.082c.535.097 1.052.205 1.422.368-.398 1.382-7.391-.337-9.399-.982l-.237-.079c-.069-.024-.126-.045-.172-.064-1.417-.576-2.094-2.09-3.46-2.266l-.85.355-.95 1.666-.39.798C53.223 82.4 55.62 87.37 57.897 90.586c2.106.541 4.628.962 4.006 3.293 3.376 1.263 5.273 4.76 5.348 8.868 3.232 1.924 9.62.896 9.073-3.379-.233-1.81-1.221-3.048-3.211-3.916.604-.678 1.89-.134 2.652.134 1.163.406 2.349 1.016 3.378 1.694l-.004-.004.22-.324c.31-.47.914-1.424 1.587-2.705l-.023.016.068-3.646s.255.315.55.667l.18.214c.12.143.24.282.346.402.107-.253.214-.51.318-.773l-.08-2.56.574 1.22c1.006-2.967 1.596-6.428.702-9.629l-.153-.178c-.634-.72-1.398-1.386-2.282-2.016-.205-.273-1.047-.873-2.016-1.514.912-.101 3.215-.5 4.296-1.996l.019.008-1.159-.569c-1.682-.832-3.426-1.715-5.068-2.512l-2.755-1.06zm9.884 28.36s1.236-7.964 1.014-7.2c-.126.434-.276.917-.433 1.404l-.136.418c-.5 1.53-1.02 2.983-1.02 2.983l-.376-1.09-1.195 5.747-1.5-1.68-.174 4.34.023-.06c.115-.287.62-1.509.893-1.587.31-.09.413 1.445.686 1.572.165.075.75-1.835 1.185-3.351l.126-.441c.22-.778.377-1.365.377-1.365zM41.62 74.37h-.005v.001c-1.365.178-2.212 1.45-3.626 2.024-.533.536-8.232 3.195-9.469 1.583.786-.347 2.226-.648 3.098-1.026-2.36-.116-4.651-.755-6.057-1.307l-.86-.242H23.46l-.893.297c1.412.553 3.015 1.668 4.543 1.89-2.548-.098-3.769-.174-5.722-1.491l-1.684.564c-1.538 1.13-2.707 2.334-3.593 3.535 1.61-.688 3.053-.67 3.656-.622l.143.014c.101.01.155.02.155.02-3.365.391-5.827 4.213-5.948 4.404l-.004.007-.03.087c-.897 2.743-.645 4.975-.55 5.579l.018.108.009.047.001.006-.092-.069.072.217c.03.084.063.168.097.25l.79-1.68-.045 1.482-.013.398-.032 1.079c.093.14.192.278.293.414.36-.402.92-1.086 1.073-1.274l.04-.049.05 2.707c.66.729 1.322 1.416 1.812 2.12l.006.006.316 1.227-.177 1.743.025-.052c.57-1.13 5.495-7.148 8.352-4.994-2.546.964-3.418 3.712-3.65 5.521-.549 4.273 5.44 5.776 8.672 3.852-.2-4.304 2.34-6.52 5.444-7.973-.624-2.332 1.745-3.7 3.908-4.188 2.344-3.313 4.819-8.486 3.335-14.028l-.188-.385-.013.01-.075.06-.768-1.473-1.172-.398v-.001zm20.156 21.718l-1.12 1.082 2.073.43 2.744 2.06c-.123-.193-1.985-3.063-3.697-3.572zm-24.786 0c-1.712.509-3.574 3.38-3.692 3.564l-.005.008 2.744-2.06 1.915-.398.033-.068.123.035h.002l-1.12-1.081zm11.14-35.295c-5.176.091-10.573.907-18.794 2.494 1.42 1.43 4.049 1.575 6.669 1.593l.476.002h.71l.468.002c3.57.02 6.621.267 5.855 3.87 1.698-.242 2.258-.338 2.844-.989.055.31.076.632.047.96l-.032.014-1.444 2.655c.45 1.415.595 3.224.618 4.802v.02c.535 3.964 2.31 14.6-3.825 15.543-1.492 1.117-2.426 3.602-.837 4.577.403.248.826.476 1.264.683.673-.342 1.694-.72 2.3-.935-.343-.988-.55-2.215-.28-3.014l.042-.113-.002.011c-.066.455.157 1.505.885 2.33.26.293.582.558.98.756.657 1.616 5.592 1.591 6.251 0 1.578-.656 1.81-2.484 1.778-3.12l-.008-.096.049.271c.197 1.131.278 2.094-.129 2.99l.492.187c.7.27 1.538.62 2.002.907.53-.236 1.04-.503 1.525-.8 1.589-.976.353-3.6-1.136-4.718-5.491-.84-4.535-12.39-4.038-16.072.017-1.41.152-2.938.545-4.17L52.14 68.74s.054.023.142.054l.006.036-.03-.217c-.025-.246-.021-.489.004-.726.733.602 1.609.757 3.221.986-1.823-3.872 1.825-3.588 6.192-3.803l.462-.025c.759-.044 1.534-.108 2.3-.215l-6.252-1.857 1.031 1.242-4.118-2.107c-.668-.12-1.344-.264-2.012-.423l.605 1.389-5.56-2.28zM1.695 71.94c-.367 2.057.158 4.37.56 6.485.675 3.553 3.292 6.63 4.187 9.594.598-.097.304-1.059 1.116-.947.342.616-.073 1.817-.483 3.094l-.116.366c-.575 1.838-.993 3.732.958 4.202h.003c-.098-.042.03-.084.178-.125l.11-.03c.091-.026.17-.05.188-.074.99-1.275 1.528-6.19.698-8.648-1.25.026-2.24-1.305-2.233-2.028.019-2.388 1.074-4.519 0-7.567-2.438-.078-1.935 3.632-1.676 4.866-1.2-.348-1.092-2.422-.836-3.649.273-1.316 1.786-1.899 1.814-2.566-1.662-2.156-3.14.356-2.653 1.62-2.177-.757-.09-4.117 1.64-4.234 2.085-.138 2.227 2.17 3.107 3.423-.185-3.33-4.68-14.287-6.562-3.782zm89.793-2.794l-.23.09-.148.488c-.525 1.804-.848 3.805-.969 5.998.879-1.252 1.127-2.975 3.21-2.837 1.73.113 3.712 2.891 1.535 3.647-.153-1.265.314-2.234-2.233-2.16-.04.274-.279.357-.417.54.028.668 1.54 1.25 1.813 2.567.254 1.227.027 3.34-1.174 3.687-.651-1.303 1.098-4.982-1.338-4.904-.731 2.073-.572 3.607-.389 5.129l.064.537c.063.538.115 1.083.12 1.657.005.72-.778 2.298-2.028 2.272-.83 2.458-.294 7.373.697 8.648.055.07.656.152.485.226l.177-.048c3.122-.973-.668-6.084.177-7.611.814-.112.515.85 1.116.947.897-2.965 3.514-6.04 4.187-9.594.996-5.237 1.48-11.62-4.655-9.28zM8.259 83.153c-.053.225-.244.316-.277.56l-.003.115c.172.283.406.51.699.676.021-.607.03-1.2-.42-1.351zm81.883 0c-.45.151-.442.744-.42 1.351.235-.133.43-.305.588-.513l.111-.163-.003-.115c-.033-.244-.224-.335-.276-.56zm-12.699-7.384c-2.241 1.636-3.445 1.716-6.192 1.823 1.747-.255 3.592-1.677 5.138-2.09.288-.076.813.295 1.054.267zm-42.805-2.964c-.419 1.731-2.014 2.766-3.74 2.206l.004-.006s.113-.447.07-.34c-.042.104-.408-.485-.408-.485l-.648-.183-.289.31c-.378-.326-.636-.73-.714-1.258l-.019-.18-.108.002-.95-.003-.004.062c-.041 1.276.722 2.02 1.846 2.566.19.093.382.172.572.235.867.054 1.73.06 2.582.006 1.154-.417 2.038-1.404 2.334-2.702l.043-.22-.57-.01zm29.13.006l-.498.008c.15.872.561 1.617 1.142 2.162l.012.05s.603.514.743.5c.047-.005.126-.062.211-.138l-.524-.058c1.02.124 2.049.186 3.076.203l.77.005.1-.047c1.065-.518 1.805-1.212 1.845-2.369v-.197l-.003-.045-1.06.007c-.07.91-.64 1.466-1.447 1.885-.839.438-1.672.484-2.385.24l.009-.012s.112-.447.07-.34c-.042.104-.407-.485-.407-.485l-.65-.183-.207.222c-.302-.34-.536-.759-.678-1.236l-.046-.171-.073-.001zm-36.82.154l-.003.001-.101.035c-.066.022-.159.052-.263.084l-.107.032-.128.008c-1.613.114-1.877.425-3.146 1.305l.213.233 1.288-.523.758.871c.898.205 1.807.378 2.718.507-.701-.48-1.162-1.255-1.228-2.553zm44.706.16c-.058 1.138-.42 1.874-.98 2.362.683-.033 1.36-.081 2.026-.137l.485-.322.844-.97.685.278c-.407-.246-.669-.418-.882-.54-.203-.115-.359-.184-.55-.232-.184-.067-.377-.127-.518-.142-.365-.036-1.11-.298-1.11-.298zm-35.309-.14l.008.049-.106-.033.06.83c-.164.566-.59 1.107-1.15 1.604 1.159-.236 2.28-.605 3.344-1.135l.004.004-.06-.089c-.456-.611-1.29-1.096-1.95-1.211l-.15-.02zM23.788 70.32l-2.755 1.06-5.9 2.865c.243.403.571.733.943 1.004l3.598-.176 3.1-1.104c.143-.253.302-.497.473-.731l-.764.47 1.313-1.345-3.356 2.194.128-.214.252-.428c.672-1.141 1.383-2.29 2.968-3.595zM62.038 73l-.165.03c-.513.109-1.075.364-1.499.716l-.007.007c-.147.124-.275.256-.378.396.784.31 1.59.556 2.41.75l-.311-.557-.113-.446.065-.896h-.001zm-38.121-.14c-.156.189-.303.378-.444.563.393-.18.786-.37 1.184-.562l-.74-.002zm44.066-.259l-.238.255.058.276s.31.263.382.255c.072-.007.302-.268.302-.268l.011-.044c.016-.064.042-.17.025-.133-.023.055-.208-.246-.208-.246l-.332-.095zm-34.856 0l-.238.255.056.276s.31.263.383.255c.073-.007.301-.268.301-.268l.011-.044c.016-.064.042-.17.025-.133-.021.055-.208-.246-.208-.246l-.33-.095zm16.644-2.606l2.25.315-2.806.63-2.697.563 1.625-1.262 1.628-.246zm-25.417-9.318c-7.493 3.587-11.147 9.026-16.373 1.784l-.009-.01c-.02-.022-.074-.086-.139-.216l.006.107c.064.714.427 1.711.922 2.672 4.825 5.696 8.478.62 15.593-2.784 4.61-1.846 8.952-3.113 13.143-3.868 8.669-2.69 15.64-2.579 24.448.333.995.329 3.01 1.251 5.463 2.41 3.376 1.109 6.843 2.45 10.466 3.986 5.883 2.495 6.88 4.45 10.974 1.253.5-.727.961-1.595 1.28-2.402l.128-.341-.176.157c-5.182 4.592-5.774 2.507-12.206-.22-19.072-8.09-33.851-10.733-53.52-2.861zm-14.659-1.27c-1.237 1.75 1.315 8.483 7.21 4.378-2.025.388-3.802.608-4.696.217.631-.844 1.26-1.688 1.891-2.53 0 0-2.401 1.458-2.624 1.423-.223-.037.712-2.419.712-2.419-.544.521-1.086 1.044-1.627 1.566-.716-.734-.719-1.707-.866-2.634zm78.85-.324c-.148.924-.118 2.225-.833 2.96-.542-.523-1.084-1.046-1.627-1.567 0 0 .193.492.383 1.033l.112.326c.18.542.318 1.043.217 1.06-.223.035-3.662-2.234-3.662-2.234.27.362.73.872 1.219 1.403l.49.534c.488.532.949 1.042 1.22 1.404-.896.39-2.671.171-4.696-.217 5.894 4.105 8.413-2.954 7.176-4.702zm-48.42-8.016c.89.062 1.78.122 2.671.183l-5.842 1.69 6.025-.593-6.568 2.19c2.295-.395 4.588-.791 6.884-1.188 4.833-.065 9.073.243 13.86.914l6.703 1.553-7.15-2.745c1.497-.028 2.995-.06 4.491-.091l-6.103-1.467 4.47-.091c-6.947-1.57-12.421-1.423-19.44-.355zm-31.083-.396l-.085.051c.033.418.142.764.279 1.08 1.273-.792 2.413-1.718 4.048-2.162-.945-2.25-3.031.272-4.242 1.03zm76.074-1.031c1.635.444 2.775 1.37 4.048 2.162.111-.253.202-.525.251-.838l.029-.242-.086-.051c-1.212-.76-3.295-3.281-4.242-1.031zm-42.408-5.94c-9.796.76-18.472 2.663-26.92 7.444 7.815-3.24 16.495-5.701 26.92-7.444zm-34.03 2.563c-.391.411-.326 1.015-.204 1.643l.078.378c.078.378.149.752.126 1.086.816-.56 1.732-1.023 2.233-1.892-.73-.327-1.17-.934-1.998-1.163l-.235-.052zm81.045 0l-.237.052c-.828.229-1.267.836-1.996 1.163.5.869 1.417 1.331 2.233 1.892-.023-.334.047-.708.125-1.086l.078-.378c.123-.628.188-1.232-.203-1.643zM49.382 5.049l-.136.007v.003l-.046-.002-.046.002v-.003l-.136-.007c-3.229-.142-6.615.546-10.05 1.217-8.478 1.654-21.371 3.961-23.312 13.647-1.8 8.988-1.136 19.654-.558 28.917.617-.213 1.229-.428 1.839-.643l.913-.323c7.904-2.795 15.63-5.55 28.935-6.33.825-.06 1.627-.074 2.415-.052.786-.022 1.59-.007 2.415.051 10.913.789 17.789 2.593 23.2 4.383l.67.224c2.867.968 5.336 1.92 7.816 2.69.58-9.263 1.242-19.929-.558-28.917-1.94-9.686-14.833-11.993-23.31-13.647-3.436-.671-6.824-1.359-10.051-1.217zM42.75 46.547c.659.025 1.315.051 1.972.08-1.437.243-2.874.489-4.31.732 1.482-.087 2.962-.173 4.444-.256l-4.845.95 5.078-.516c3.562-.028 6.692.107 10.224.398 1.648.223 3.296.448 4.943.674l-5.275-1.193 3.313-.039-4.5-.637 3.296-.038c-5.125-.685-9.16-.621-14.34-.155zM10.292 45.38l-.08.072c.562.538 1.118 1.079 1.815 1.485.704-.4 1.188-1.01.976-2.297-.917-1.023-1.974.07-2.71.74zm75.103-.74c-.21 1.287.276 1.897.978 2.297.596-.348 1.091-.795 1.573-1.255l.24-.23-.08-.072c-.735-.67-1.792-1.763-2.71-.74zm1.956-1.35c.358.553 1.078.757 1.675 1.08.638.066.553-.64 1.016-.454l.1.05.033-.193c.469-3.05-2.033-1.535-2.824-.483zm-79.125.483l.032.193c.576-.333.434.474 1.117.404.596-.323 1.314-.527 1.674-1.08-.791-1.052-3.293-2.566-2.823.483zm78.147-4.133c-.977.171-.924 1.342-.97 2.415l-.008.153.14.082c.176.118.326.261.559.322.723-.559 1.62-.952 1.954-1.89-.67-.253-1.229-.613-1.675-1.082zm-74.346 0c-.446.47-1.004.829-1.676 1.082.333.938 1.23 1.331 1.955 1.89.117-.03.212-.081.3-.14l.258-.182.14-.082c-.006-.097-.01-.195-.013-.293l-.01-.295c-.034-.935-.108-1.832-.954-1.98zm75.185-.674c.588.33 1.118.717 1.673 1.08.254-.041.456-.133.647-.235l.283-.156.146-.074.181-.076v-1.08l-.11-.103c-1.048-.921-2.396-.943-2.82.644zM8.37 38.323l-.11.103v1.08c.437.161.737.458 1.256.54.553-.362 1.085-.75 1.675-1.08-.426-1.586-1.774-1.564-2.821-.643zm78.004-2.599l-.11.023c-.7.199-.74 1.298-.448 2.274.411-.361 1.678-.982 1.675-1.351-.002-.227-.955-.97-1.117-.946zm-74.346 0c-.163-.025-1.115.72-1.116.946-.005.369 1.263.99 1.674 1.351.29-.976.251-2.075-.448-2.274l-.11-.023zm76.58-1.623c-.526.257-1.088.48-1.256 1.082.484.025.53.478.976.541.428-.138.663-.463.977-.711l.14-.101-.011-.114c-.086-.416-.656-.362-.827-.697zm-78.815 0c-.169.335-.74.281-.825.697l-.01.114c.39.253.627.654 1.115.812.447-.063.492-.516.977-.54-.168-.603-.73-.826-1.257-1.083zm76.161-1.485c-.318.187-.05.94-.138 1.35.344.175.877-.308.966-.839l.012-.106-.165-.043c-.26-.087-.454-.238-.675-.362zm-73.508 0c-.219.124-.412.275-.673.362l-.164.043c.028.57.61 1.132.977.945-.026-.126-.02-.285-.007-.45l.02-.248c.02-.287.019-.551-.153-.652zm74.207-.947c.486.117.775.421 1.117.676.352-.16.515-.504.815-.717l.163-.093-.06-.098c-.522-.786-1.785-.923-2.035.232zm-76.94-.232l-.058.098c.413.186.565.624.976.81.342-.255.632-.56 1.118-.676-.25-1.155-1.513-1.018-2.035-.232zm2.321-1.637l-.146-.022c.107.437.385.706.837.811-.067-.428.251-.478.14-.947-.391-.06-.477.18-.83.158zm73.636-.167l-.133.009c-.111.47.208.52.14.947.4-.093.666-.317.795-.671l.042-.14-.146.022c-.266.017-.38-.114-.587-.155l-.111-.012zm-.274-1.343c.623.119 1.239.243 1.677.541.49-.016.543-.455.87-.631l.106-.044-.034-.1c-.519-1.331-3.104-1.962-2.619.234zm-75.01-.233l-.034.099c.428.128.437.657.978.675.437-.298 1.053-.422 1.674-.54.487-2.197-2.098-1.566-2.618-.234zm3.457-8.279c-.675 1.002-1.177 2.171-1.72 3.302l-.235.482c.231.497.504.953 1.116 1.081.884-.948.75-3.6.84-4.865zm70.716 0c.089 1.265-.045 3.917.837 4.865.563-.117.84-.51 1.06-.958l.058-.123-.235-.482c-.541-1.13-1.045-2.3-1.72-3.302zM49.058 1.31l-2.406.407-1.54.943-1.47 1.6 3.254-.608 3.186-.045 4.19.405-1.205-1.487-1.825-.943-2.184-.272z" transform="translate(63.977)"/>
        </g>
    </g>
</svg>
